Stretch Black Display Narrow Cy Sc vv(-6.4-0.0)-(110.0-100.0)-0.0-0.0-(0.0-0.0).ufo
<glyph name="aie-cy.sc" format="1">
  <advance width="1561"/>
  <outline>
    <contour>
      <point x="647" y="145" type="line"/>
      <point x="529" y="124" type="line"/>
      <point x="529" y="0" type="line"/>
      <point x="1522" y="0" type="line"/>
      <point x="1575" y="332" type="line"/>
      <point x="1388" y="384" type="line"/>
      <point x="1284" y="155" type="line"/>
      <point x="983" y="130" type="line"/>
      <point x="983" y="583" type="line"/>
      <point x="1144" y="578" type="line"/>
      <point x="1173" y="426" type="line"/>
      <point x="1297" y="426" type="line"/>
      <point x="1297" y="877" type="line"/>
      <point x="1171" y="877" type="line"/>
      <point x="1142" y="738" type="line"/>
      <point x="983" y="732" type="line"/>
      <point x="983" y="1170" type="line"/>
      <point x="1261" y="1147" type="line"/>
      <point x="1322" y="969" type="line"/>
      <point x="1470" y="969" type="line"/>
      <point x="1448" y="1292" type="line"/>
      <point x="151" y="1292" type="line"/>
      <point x="151" y="1158" type="line"/>
      <point x="354" y="1132" type="line"/>
      <point x="-13" y="145" type="line"/>
      <point x="-125" y="124" type="line"/>
      <point x="-125" y="0" type="line"/>
      <point x="361" y="0" type="line"/>
      <point x="361" y="124" type="line"/>
      <point x="243" y="145" type="line"/>
      <point x="306" y="350" type="line"/>
      <point x="647" y="350" type="line"/>
    </contour>
    <contour>
      <point x="647" y="500" type="line"/>
      <point x="358" y="500" type="line"/>
      <point x="484" y="905" type="line"/>
      <point x="560" y="1155" type="line"/>
      <point x="647" y="1155" type="line"/>
    </contour>
  </outline>
</glyph>
<glyph name="be-cy.sc" format="1">
  <advance width="1076"/>
  <outline>
    <contour>
      <point x="541" y="-125" type="move" name="mark0"/>
    </contour>
    <contour>
      <point x="434" y="754" type="curve"/>
      <point x="434" y="1243" type="line"/>
      <point x="672" y="1234" type="line"/>
      <point x="782" y="897" type="line"/>
      <point x="918" y="897" type="line"/>
      <point x="932" y="1292" type="line"/>
      <point x="-10" y="1292" type="line"/>
      <point x="-9" y="1257" type="line"/>
      <point x="81" y="1225" type="line"/>
      <point x="81" y="67" type="line"/>
      <point x="-10" y="35" type="line"/>
      <point x="-8" y="0" type="line"/>
      <point x="175" y="0" type="line" smooth="yes"/>
      <point x="293" y="0"/>
      <point x="421" y="-18"/>
      <point x="538" y="-18" type="curve" smooth="yes"/>
      <point x="866" y="-18"/>
      <point x="1029" y="90"/>
      <point x="1029" y="371" type="curve" smooth="yes"/>
      <point x="1029" y="679"/>
      <point x="796" y="772"/>
      <point x="556" y="772" type="curve" smooth="yes"/>
      <point x="512" y="772"/>
      <point x="467" y="764"/>
    </contour>
    <contour>
      <point x="435" y="63" type="curve"/>
      <point x="434" y="691" type="line"/>
      <point x="450" y="697"/>
      <point x="470" y="701"/>
      <point x="482" y="701" type="curve" smooth="yes"/>
      <point x="618" y="701"/>
      <point x="662" y="580"/>
      <point x="662" y="367" type="curve" smooth="yes"/>
      <point x="662" y="174"/>
      <point x="642" y="40"/>
      <point x="521" y="40" type="curve" smooth="yes"/>
      <point x="470" y="40"/>
      <point x="446" y="53"/>
    </contour>
  </outline>
</glyph>
<glyph name="che-cy.sc" format="1">
  <advance width="1140"/>
  <outline>
    <contour>
      <point x="515" y="-144" type="move" name="btm"/>
    </contour>
    <contour>
      <point x="474" y="1292" type="move" name="top"/>
    </contour>
    <contour>
      <point x="622" y="551" type="curve"/>
      <point x="621" y="67" type="line"/>
      <point x="522" y="35" type="line"/>
      <point x="522" y="0" type="line"/>
      <point x="1061" y="0" type="line"/>
      <point x="1062" y="35" type="line"/>
      <point x="974" y="67" type="line"/>
      <point x="974" y="1225" type="line"/>
      <point x="1064" y="1257" type="line"/>
      <point x="1064" y="1292" type="line"/>
      <point x="524" y="1292" type="line"/>
      <point x="523" y="1257" type="line"/>
      <point x="621" y="1225" type="line"/>
      <point x="622" y="619" type="line"/>
      <point x="593" y="599"/>
      <point x="566" y="590"/>
      <point x="533" y="590" type="curve" smooth="yes"/>
      <point x="370" y="590"/>
      <point x="397" y="751"/>
      <point x="397" y="1016" type="curve" smooth="yes"/>
      <point x="397" y="1225" type="line"/>
      <point x="491" y="1257" type="line"/>
      <point x="491" y="1292" type="line"/>
      <point x="-45" y="1292" type="line"/>
      <point x="-46" y="1257" type="line"/>
      <point x="45" y="1225" type="line"/>
      <point x="45" y="857" type="line" smooth="yes"/>
      <point x="46" y="597"/>
      <point x="197" y="506"/>
      <point x="417" y="506" type="curve" smooth="yes"/>
      <point x="519" y="506"/>
      <point x="583" y="527"/>
    </contour>
  </outline>
</glyph>
<glyph name="cheabkhasian-cy.sc" format="1">
  <advance width="1325"/>
  <outline>
    <contour>
      <point x="699" y="0" type="move" name="bottom"/>
    </contour>
    <contour>
      <point x="1193" y="60" type="curve"/>
      <point x="1217" y="424" type="line"/>
      <point x="1039" y="424" type="line"/>
      <point x="1005" y="247" type="line"/>
      <point x="980" y="105"/>
      <point x="943" y="42"/>
      <point x="846" y="42" type="curve" smooth="yes"/>
      <point x="708" y="42"/>
      <point x="666" y="361"/>
      <point x="648" y="555" type="curve" smooth="yes"/>
      <point x="641" y="604"/>
      <point x="638" y="638"/>
      <point x="637" y="655" type="curve"/>
      <point x="1212" y="655" type="line"/>
      <point x="1226" y="717"/>
      <point x="1227" y="832"/>
      <point x="1217" y="920" type="curve" smooth="yes"/>
      <point x="1185" y="1197"/>
      <point x="1044" y="1310"/>
      <point x="809" y="1310" type="curve" smooth="yes"/>
      <point x="505" y="1310"/>
      <point x="311" y="1087"/>
      <point x="280" y="727" type="curve"/>
      <point x="161" y="739"/>
      <point x="155" y="785"/>
      <point x="152" y="822" type="curve" smooth="yes"/>
      <point x="144" y="881"/>
      <point x="169" y="930"/>
      <point x="187" y="955" type="curve"/>
      <point x="24" y="983" type="line"/>
      <point x="-21" y="932"/>
      <point x="-26" y="873"/>
      <point x="-21" y="831" type="curve" smooth="yes"/>
      <point x="-8" y="713"/>
      <point x="94" y="684"/>
      <point x="276" y="673" type="curve"/>
      <point x="276" y="631"/>
      <point x="278" y="584"/>
      <point x="287" y="520" type="curve" smooth="yes"/>
      <point x="328" y="163"/>
      <point x="531" y="-16"/>
      <point x="835" y="-16" type="curve" smooth="yes"/>
      <point x="1034" y="-16"/>
      <point x="1130" y="62"/>
    </contour>
    <contour>
      <point x="934" y="718" type="curve"/>
      <point x="632" y="716" type="line"/>
      <point x="621" y="1047"/>
      <point x="700" y="1252"/>
      <point x="799" y="1252" type="curve" smooth="yes"/>
      <point x="887" y="1252"/>
      <point x="912" y="1091"/>
      <point x="923" y="972" type="curve" smooth="yes"/>
      <point x="936" y="873"/>
      <point x="941" y="780"/>
    </contour>
  </outline>
</glyph>
<glyph name="chedescender-cy.sc" format="1">
  <advance width="1078"/>
  <outline>
    <contour>
      <point x="573" y="-144" type="move" name="btm"/>
    </contour>
    <contour>
      <point x="368" y="1444" type="move" name="top"/>
    </contour>
    <contour>
      <point x="1100" y="69" type="curve"/>
      <point x="951" y="69" type="line"/>
      <point x="950" y="1225" type="line"/>
      <point x="1041" y="1257" type="line"/>
      <point x="1039" y="1292" type="line"/>
      <point x="499" y="1292" type="line"/>
      <point x="500" y="1257" type="line"/>
      <point x="597" y="1225" type="line"/>
      <point x="598" y="619" type="line"/>
      <point x="570" y="599"/>
      <point x="542" y="590"/>
      <point x="509" y="590" type="curve" smooth="yes"/>
      <point x="346" y="590"/>
      <point x="372" y="751"/>
      <point x="374" y="1016" type="curve" smooth="yes"/>
      <point x="373" y="1225" type="line"/>
      <point x="468" y="1257" type="line"/>
      <point x="467" y="1292" type="line"/>
      <point x="-70" y="1292" type="line"/>
      <point x="-69" y="1257" type="line"/>
      <point x="21" y="1225" type="line"/>
      <point x="22" y="857" type="line" smooth="yes"/>
      <point x="22" y="597"/>
      <point x="174" y="506"/>
      <point x="394" y="506" type="curve" smooth="yes"/>
      <point x="496" y="506"/>
      <point x="560" y="527"/>
      <point x="599" y="551" type="curve"/>
      <point x="598" y="67" type="line"/>
      <point x="498" y="35" type="line"/>
      <point x="499" y="0" type="line"/>
      <point x="861" y="0" type="line"/>
      <point x="876" y="-81"/>
      <point x="890" y="-270"/>
      <point x="893" y="-370" type="curve"/>
      <point x="1025" y="-370" type="line"/>
      <point x="1052" y="-257"/>
      <point x="1092" y="-53"/>
    </contour>
  </outline>
</glyph>
<glyph name="chedieresis-cy.sc" format="1">
  <advance width="1140"/>
  <outline>
    <contour>
      <point x="666" y="1320" type="curve"/>
      <point x="761" y="1320"/>
      <point x="822" y="1417"/>
      <point x="822" y="1516" type="curve" smooth="yes"/>
      <point x="822" y="1606"/>
      <point x="771" y="1666"/>
      <point x="681" y="1666" type="curve" smooth="yes"/>
      <point x="585" y="1666"/>
      <point x="521" y="1577"/>
      <point x="521" y="1489" type="curve" smooth="yes"/>
      <point x="521" y="1388"/>
      <point x="574" y="1320"/>
    </contour>
    <contour>
      <point x="267" y="1320" type="curve"/>
      <point x="363" y="1320"/>
      <point x="427" y="1417"/>
      <point x="427" y="1516" type="curve" smooth="yes"/>
      <point x="427" y="1608"/>
      <point x="374" y="1666"/>
      <point x="282" y="1666" type="curve" smooth="yes"/>
      <point x="187" y="1666"/>
      <point x="126" y="1577"/>
      <point x="126" y="1489" type="curve" smooth="yes"/>
      <point x="126" y="1388"/>
      <point x="177" y="1320"/>
    </contour>
    <contour>
      <point x="622" y="551" type="curve"/>
      <point x="621" y="67" type="line"/>
      <point x="522" y="35" type="line"/>
      <point x="522" y="0" type="line"/>
      <point x="1061" y="0" type="line"/>
      <point x="1062" y="35" type="line"/>
      <point x="974" y="67" type="line"/>
      <point x="974" y="1225" type="line"/>
      <point x="1064" y="1257" type="line"/>
      <point x="1064" y="1292" type="line"/>
      <point x="524" y="1292" type="line"/>
      <point x="523" y="1257" type="line"/>
      <point x="621" y="1225" type="line"/>
      <point x="622" y="619" type="line"/>
      <point x="593" y="599"/>
      <point x="566" y="590"/>
      <point x="533" y="590" type="curve" smooth="yes"/>
      <point x="370" y="590"/>
      <point x="397" y="751"/>
      <point x="397" y="1016" type="curve" smooth="yes"/>
      <point x="397" y="1225" type="line"/>
      <point x="491" y="1257" type="line"/>
      <point x="491" y="1292" type="line"/>
      <point x="-45" y="1292" type="line"/>
      <point x="-46" y="1257" type="line"/>
      <point x="45" y="1225" type="line"/>
      <point x="45" y="857" type="line" smooth="yes"/>
      <point x="46" y="597"/>
      <point x="197" y="506"/>
      <point x="417" y="506" type="curve" smooth="yes"/>
      <point x="519" y="506"/>
      <point x="583" y="527"/>
    </contour>
  </outline>
</glyph>
<glyph name="chekhakassian-cy.sc" format="1">
  <advance width="1168"/>
  <outline>
    <contour>
      <point x="659" y="0" type="curve"/>
      <point x="1067" y="0" type="line"/>
      <point x="1067" y="35" type="line"/>
      <point x="980" y="67" type="line"/>
      <point x="979" y="1225" type="line"/>
      <point x="1070" y="1257" type="line"/>
      <point x="1068" y="1292" type="line"/>
      <point x="528" y="1292" type="line"/>
      <point x="529" y="1257" type="line"/>
      <point x="626" y="1225" type="line"/>
      <point x="627" y="619" type="line"/>
      <point x="599" y="599"/>
      <point x="571" y="590"/>
      <point x="538" y="590" type="curve" smooth="yes"/>
      <point x="375" y="590"/>
      <point x="401" y="751"/>
      <point x="402" y="1016" type="curve" smooth="yes"/>
      <point x="402" y="1225" type="line"/>
      <point x="497" y="1257" type="line"/>
      <point x="496" y="1292" type="line"/>
      <point x="-41" y="1292" type="line"/>
      <point x="-40" y="1257" type="line"/>
      <point x="49" y="1225" type="line"/>
      <point x="51" y="857" type="line" smooth="yes"/>
      <point x="51" y="597"/>
      <point x="203" y="506"/>
      <point x="423" y="506" type="curve" smooth="yes"/>
      <point x="525" y="506"/>
      <point x="589" y="527"/>
      <point x="628" y="551" type="curve"/>
      <point x="627" y="71" type="line"/>
      <point x="442" y="71" type="line"/>
      <point x="440" y="-13"/>
      <point x="427" y="-284"/>
      <point x="424" y="-370" type="curve"/>
      <point x="548" y="-370" type="line"/>
      <point x="569" y="-286"/>
      <point x="627" y="-81"/>
    </contour>
  </outline>
</glyph>
<glyph name="cheverticalstroke-cy.sc" format="1">
  <advance width="1140"/>
  <outline>
    <contour>
      <point x="622" y="551" type="curve"/>
      <point x="621" y="67" type="line"/>
      <point x="522" y="35" type="line"/>
      <point x="522" y="0" type="line"/>
      <point x="1061" y="0" type="line"/>
      <point x="1062" y="35" type="line"/>
      <point x="974" y="67" type="line"/>
      <point x="974" y="1225" type="line"/>
      <point x="1064" y="1257" type="line"/>
      <point x="1064" y="1292" type="line"/>
      <point x="524" y="1292" type="line"/>
      <point x="523" y="1257" type="line"/>
      <point x="621" y="1225" type="line"/>
      <point x="622" y="619" type="line"/>
      <point x="602" y="603"/>
      <point x="582" y="594"/>
      <point x="561" y="591" type="curve"/>
      <point x="558" y="864" type="line"/>
      <point x="509" y="864" type="line"/>
      <point x="510" y="591" type="line"/>
      <point x="360" y="603"/>
      <point x="396" y="792"/>
      <point x="397" y="1016" type="curve" smooth="yes"/>
      <point x="397" y="1225" type="line"/>
      <point x="491" y="1257" type="line"/>
      <point x="491" y="1292" type="line"/>
      <point x="-45" y="1292" type="line"/>
      <point x="-46" y="1257" type="line"/>
      <point x="45" y="1225" type="line"/>
      <point x="45" y="857" type="line" smooth="yes"/>
      <point x="46" y="597"/>
      <point x="197" y="506"/>
      <point x="417" y="506" type="curve" smooth="yes"/>
      <point x="451" y="506"/>
      <point x="488" y="508"/>
      <point x="509" y="511" type="curve"/>
      <point x="510" y="302" type="line"/>
      <point x="561" y="302" type="line"/>
      <point x="561" y="518" type="line"/>
      <point x="592" y="527"/>
      <point x="613" y="540"/>
    </contour>
  </outline>
</glyph>
<glyph name="de-cy.sc" format="1">
  <advance width="1245"/>
  <outline>
    <contour>
      <point x="548" y="-144" type="move" name="btm"/>
    </contour>
    <contour>
      <point x="424" y="1444" type="move" name="top"/>
    </contour>
    <contour>
      <point x="1262" y="69" type="curve"/>
      <point x="1070" y="70" type="line"/>
      <point x="1070" y="1225" type="line"/>
      <point x="1160" y="1257" type="line"/>
      <point x="1159" y="1292" type="line"/>
      <point x="291" y="1292" type="line"/>
      <point x="291" y="1257" type="line"/>
      <point x="404" y="1222" type="line"/>
      <point x="404" y="1128" type="line" smooth="yes"/>
      <point x="394" y="561"/>
      <point x="333" y="188"/>
      <point x="230" y="71" type="curve"/>
      <point x="82" y="71" type="line"/>
      <point x="81" y="-13"/>
      <point x="67" y="-284"/>
      <point x="64" y="-370" type="curve"/>
      <point x="188" y="-370" type="line"/>
      <point x="209" y="-286"/>
      <point x="267" y="-81"/>
      <point x="297" y="0" type="curve"/>
      <point x="1023" y="0" type="line"/>
      <point x="1038" y="-81"/>
      <point x="1052" y="-270"/>
      <point x="1055" y="-370" type="curve"/>
      <point x="1187" y="-370" type="line"/>
      <point x="1214" y="-257"/>
      <point x="1254" y="-53"/>
    </contour>
    <contour>
      <point x="475" y="1104" type="curve" smooth="yes"/>
      <point x="476" y="1221" type="line"/>
      <point x="718" y="1221" type="line"/>
      <point x="717" y="71" type="line"/>
      <point x="337" y="71" type="line"/>
      <point x="425" y="228"/>
      <point x="474" y="622"/>
    </contour>
  </outline>
</glyph>
<glyph name="dje-cy.sc" format="1">
  <advance width="1338"/>
  <outline>
    <contour>
      <point x="419" y="-144" type="move" name="btm"/>
    </contour>
    <contour>
      <point x="334" y="1444" type="move" name="top"/>
    </contour>
    <contour>
      <point x="694" y="691" type="curve"/>
      <point x="694" y="1242" type="line"/>
      <point x="799" y="1236" type="line"/>
      <point x="902" y="918" type="line"/>
      <point x="1046" y="918" type="line"/>
      <point x="1055" y="1292" type="line"/>
      <point x="-43" y="1292" type="line"/>
      <point x="-39" y="918" type="line"/>
      <point x="127" y="918" type="line"/>
      <point x="218" y="1235" type="line"/>
      <point x="341" y="1242" type="line"/>
      <point x="341" y="67" type="line"/>
      <point x="170" y="35" type="line"/>
      <point x="171" y="0" type="line"/>
      <point x="832" y="0" type="line"/>
      <point x="832" y="38" type="line"/>
      <point x="695" y="71" type="line"/>
      <point x="693" y="617" type="line"/>
      <point x="728" y="643"/>
      <point x="770" y="666"/>
      <point x="821" y="666" type="curve" smooth="yes"/>
      <point x="938" y="666"/>
      <point x="996" y="550"/>
      <point x="1012" y="404" type="curve" smooth="yes"/>
      <point x="1030" y="249"/>
      <point x="1022" y="140"/>
      <point x="984" y="90" type="curve" smooth="yes"/>
      <point x="958" y="60"/>
      <point x="911" y="52"/>
      <point x="874" y="60" type="curve"/>
      <point x="875" y="-1" type="line"/>
      <point x="899" y="-9"/>
      <point x="945" y="-12"/>
      <point x="980" y="-12" type="curve" smooth="yes"/>
      <point x="1206" y="-12"/>
      <point x="1413" y="154"/>
      <point x="1381" y="416" type="curve" smooth="yes"/>
      <point x="1353" y="658"/>
      <point x="1177" y="759"/>
      <point x="967" y="759" type="curve" smooth="yes"/>
      <point x="834" y="759"/>
      <point x="744" y="725"/>
    </contour>
  </outline>
</glyph>
<glyph name="dzeabkhasian-cy.sc" format="1">
  <advance width="1080"/>
  <outline>
    <contour>
      <point x="661" y="762" type="curve"/>
      <point x="987" y="1152" type="line"/>
      <point x="987" y="1292" type="line"/>
      <point x="76" y="1292" type="line"/>
      <point x="97" y="916" type="line"/>
      <point x="292" y="916" type="line"/>
      <point x="335" y="1120" type="line"/>
      <point x="650" y="1128" type="line"/>
      <point x="555" y="998"/>
      <point x="481" y="848"/>
      <point x="385" y="716" type="curve"/>
      <point x="428" y="626" type="line"/>
      <point x="452" y="630"/>
      <point x="476" y="630"/>
      <point x="496" y="630" type="curve"/>
      <point x="659" y="628"/>
      <point x="660" y="504"/>
      <point x="660" y="380" type="curve" smooth="yes"/>
      <point x="660" y="208"/>
      <point x="571" y="106"/>
      <point x="466" y="106" type="curve" smooth="yes"/>
      <point x="389" y="106"/>
      <point x="351" y="140"/>
      <point x="345" y="154" type="curve"/>
      <point x="283" y="402" type="line"/>
      <point x="97" y="402" type="line"/>
      <point x="58" y="68" type="line"/>
      <point x="113" y="38"/>
      <point x="308" y="-20"/>
      <point x="483" y="-20" type="curve" smooth="yes"/>
      <point x="931" y="-20"/>
      <point x="1034" y="196"/>
      <point x="1034" y="434" type="curve" smooth="yes"/>
      <point x="1034" y="620"/>
      <point x="940" y="766"/>
      <point x="706" y="766" type="curve" smooth="yes"/>
      <point x="692" y="766"/>
      <point x="678" y="764"/>
    </contour>
  </outline>
</glyph>
<glyph name="dzhe-cy.sc" format="1">
  <advance width="1204"/>
  <outline>
    <contour>
      <point x="676" y="-144" type="move" name="btm"/>
    </contour>
    <contour>
      <point x="412" y="1444" type="move" name="top"/>
    </contour>
    <contour>
      <point x="-24" y="1292" type="line"/>
      <point x="-23" y="1257" type="line"/>
      <point x="66" y="1225" type="line"/>
      <point x="67" y="67" type="line"/>
      <point x="-24" y="35" type="line"/>
      <point x="-22" y="0" type="line"/>
      <point x="426" y="0" type="line"/>
      <point x="454" y="-97"/>
      <point x="466" y="-231"/>
      <point x="471" y="-370" type="curve"/>
      <point x="616" y="-370" type="line"/>
      <point x="622" y="-222"/>
      <point x="632" y="-97"/>
      <point x="662" y="0" type="curve"/>
      <point x="1098" y="0" type="line"/>
      <point x="1098" y="35" type="line"/>
      <point x="1011" y="67" type="line"/>
      <point x="1010" y="1225" type="line"/>
      <point x="1101" y="1257" type="line"/>
      <point x="1099" y="1292" type="line"/>
      <point x="549" y="1292" type="line"/>
      <point x="549" y="1257" type="line"/>
      <point x="657" y="1225" type="line"/>
      <point x="657" y="71" type="line"/>
      <point x="420" y="71" type="line"/>
      <point x="419" y="1225" type="line"/>
      <point x="520" y="1257" type="line"/>
      <point x="519" y="1292" type="line"/>
    </contour>
  </outline>
</glyph>
<glyph name="e-cy.sc" format="1">
  <advance width="1000"/>
  <outline>
    <contour>
      <point x="575" y="0" type="move" name="btm"/>
    </contour>
    <contour>
      <point x="558" y="1444" type="move" name="top"/>
    </contour>
    <contour>
      <point x="555" y="-19" type="curve" smooth="yes"/>
      <point x="765" y="-19"/>
      <point x="852" y="53"/>
      <point x="926" y="51" type="curve"/>
      <point x="953" y="409" type="line"/>
      <point x="776" y="409" type="line"/>
      <point x="769" y="344"/>
      <point x="722" y="153"/>
      <point x="705" y="120" type="curve"/>
      <point x="690" y="72"/>
      <point x="651" y="40"/>
      <point x="580" y="40" type="curve" smooth="yes"/>
      <point x="489" y="40"/>
      <point x="416" y="332"/>
      <point x="403" y="484" type="curve" smooth="yes"/>
      <point x="398" y="525"/>
      <point x="392" y="570"/>
      <point x="390" y="618" type="curve"/>
      <point x="545" y="590"/>
      <point x="689" y="562"/>
      <point x="733" y="557" type="curve"/>
      <point x="736" y="762" type="line"/>
      <point x="387" y="707" type="line"/>
      <point x="382" y="965"/>
      <point x="404" y="1251"/>
      <point x="559" y="1251" type="curve" smooth="yes"/>
      <point x="580" y="1251"/>
      <point x="611" y="1242"/>
      <point x="643" y="1226" type="curve"/>
      <point x="715" y="865" type="line"/>
      <point x="918" y="865" type="line"/>
      <point x="921" y="1261" type="line"/>
      <point x="802" y="1261"/>
      <point x="748" y="1310"/>
      <point x="564" y="1310" type="curve" smooth="yes"/>
      <point x="170" y="1310"/>
      <point x="-26" y="1010"/>
      <point x="29" y="560" type="curve" smooth="yes"/>
      <point x="72" y="190"/>
      <point x="236" y="-19"/>
    </contour>
  </outline>
</glyph>
<glyph name="edieresis-cy.sc" format="1">
  <advance width="1004"/>
  <outline>
    <contour>
      <point x="588" y="1320" type="curve"/>
      <point x="682" y="1320"/>
      <point x="743" y="1417"/>
      <point x="743" y="1516" type="curve" smooth="yes"/>
      <point x="743" y="1606"/>
      <point x="693" y="1666"/>
      <point x="603" y="1666" type="curve" smooth="yes"/>
      <point x="506" y="1666"/>
      <point x="443" y="1577"/>
      <point x="443" y="1489" type="curve" smooth="yes"/>
      <point x="443" y="1388"/>
      <point x="496" y="1320"/>
    </contour>
    <contour>
      <point x="188" y="1320" type="curve"/>
      <point x="285" y="1320"/>
      <point x="348" y="1417"/>
      <point x="348" y="1516" type="curve" smooth="yes"/>
      <point x="348" y="1608"/>
      <point x="295" y="1666"/>
      <point x="203" y="1666" type="curve" smooth="yes"/>
      <point x="109" y="1666"/>
      <point x="48" y="1577"/>
      <point x="48" y="1489" type="curve" smooth="yes"/>
      <point x="48" y="1388"/>
      <point x="99" y="1320"/>
    </contour>
    <contour>
      <point x="-28" y="1231" type="curve"/>
      <point x="-27" y="889" type="line"/>
      <point x="187" y="889" type="line"/>
      <point x="217" y="1131" type="line"/>
      <point x="236" y="1191"/>
      <point x="268" y="1251"/>
      <point x="358" y="1251" type="curve" smooth="yes"/>
      <point x="514" y="1251"/>
      <point x="565" y="958"/>
      <point x="587" y="754" type="curve" smooth="yes"/>
      <point x="591" y="726"/>
      <point x="592" y="693"/>
      <point x="591" y="687" type="curve"/>
      <point x="202" y="751" type="line"/>
      <point x="200" y="546" type="line"/>
      <point x="267" y="561"/>
      <point x="449" y="585"/>
      <point x="593" y="600" type="curve"/>
      <point x="599" y="260"/>
      <point x="510" y="40"/>
      <point x="392" y="40" type="curve" smooth="yes"/>
      <point x="315" y="40"/>
      <point x="256" y="66"/>
      <point x="203" y="114" type="curve"/>
      <point x="164" y="406" type="line"/>
      <point x="-9" y="405" type="line"/>
      <point x="-18" y="94" type="line"/>
      <point x="104" y="49"/>
      <point x="244" y="-18"/>
      <point x="400" y="-18" type="curve" smooth="yes"/>
      <point x="776" y="-18"/>
      <point x="990" y="303"/>
      <point x="938" y="748" type="curve" smooth="yes"/>
      <point x="893" y="1121"/>
      <point x="704" y="1310"/>
      <point x="383" y="1310" type="curve" smooth="yes"/>
      <point x="213" y="1310"/>
      <point x="53" y="1266"/>
    </contour>
  </outline>
</glyph>
<glyph name="ef-cy.sc" format="1">
  <advance width="1584"/>
  <outline>
    <contour>
      <point x="803" y="-144" type="move" name="btm"/>
    </contour>
    <contour>
      <point x="790" y="1444" type="move" name="top"/>
    </contour>
    <contour>
      <point x="959" y="1177" type="curve"/>
      <point x="959" y="1315" type="line"/>
      <point x="1083" y="1347" type="line"/>
      <point x="1082" y="1382" type="line"/>
      <point x="521" y="1382" type="line"/>
      <point x="521" y="1347" type="line"/>
      <point x="624" y="1315" type="line"/>
      <point x="624" y="1177" type="line"/>
      <point x="94" y="1148"/>
      <point x="-12" y="910"/>
      <point x="17" y="633" type="curve" smooth="yes"/>
      <point x="41" y="400"/>
      <point x="177" y="208"/>
      <point x="628" y="187" type="curve"/>
      <point x="629" y="40" type="line"/>
      <point x="528" y="8" type="line"/>
      <point x="529" y="-27" type="line"/>
      <point x="1074" y="-27" type="line"/>
      <point x="1074" y="8" type="line"/>
      <point x="963" y="40" type="line"/>
      <point x="963" y="192" type="line"/>
      <point x="1413" y="238"/>
      <point x="1596" y="449"/>
      <point x="1563" y="760" type="curve" smooth="yes"/>
      <point x="1532" y="1026"/>
      <point x="1327" y="1148"/>
    </contour>
    <contour>
      <point x="624" y="1117" type="curve"/>
      <point x="628" y="265" type="line"/>
      <point x="492" y="303"/>
      <point x="397" y="433"/>
      <point x="378" y="621" type="curve" smooth="yes"/>
      <point x="351" y="872"/>
      <point x="377" y="1072"/>
    </contour>
    <contour>
      <point x="962" y="260" type="curve"/>
      <point x="958" y="1105" type="line"/>
      <point x="1108" y="1066"/>
      <point x="1185" y="935"/>
      <point x="1204" y="748" type="curve" smooth="yes"/>
      <point x="1228" y="515"/>
      <point x="1186" y="318"/>
    </contour>
  </outline>
</glyph>
<glyph name="el-cy.sc" format="1">
  <advance width="1216"/>
  <outline>
    <contour>
      <point x="476" y="-144" type="move" name="btm"/>
    </contour>
    <contour>
      <point x="332" y="1444" type="move" name="top"/>
    </contour>
    <contour>
      <point x="467" y="1058" type="curve" smooth="yes"/>
      <point x="467" y="1221" type="line"/>
      <point x="696" y="1221" type="line"/>
      <point x="697" y="67" type="line"/>
      <point x="564" y="35" type="line"/>
      <point x="565" y="0" type="line"/>
      <point x="1137" y="0" type="line"/>
      <point x="1136" y="35" type="line"/>
      <point x="1049" y="67" type="line"/>
      <point x="1048" y="1225" type="line"/>
      <point x="1139" y="1257" type="line"/>
      <point x="1138" y="1292" type="line"/>
      <point x="286" y="1292" type="line"/>
      <point x="286" y="1257" type="line"/>
      <point x="396" y="1222" type="line"/>
      <point x="394" y="1081" type="line" smooth="yes"/>
      <point x="384" y="674"/>
      <point x="347" y="429"/>
      <point x="287" y="315" type="curve" smooth="yes"/>
      <point x="260" y="259"/>
      <point x="218" y="226"/>
      <point x="156" y="226" type="curve" smooth="yes"/>
      <point x="113" y="226"/>
      <point x="84" y="231"/>
      <point x="67" y="237" type="curve"/>
      <point x="66" y="1" type="line"/>
      <point x="89" y="-13"/>
      <point x="130" y="-26"/>
      <point x="182" y="-26" type="curve" smooth="yes"/>
      <point x="302" y="-26"/>
      <point x="373" y="54"/>
      <point x="414" y="218" type="curve" smooth="yes"/>
      <point x="451" y="388"/>
      <point x="462" y="665"/>
    </contour>
  </outline>
</glyph>
<glyph name="eldescender-cy.sc" format="1">
  <advance width="1217"/>
  <outline>
    <contour>
      <point x="419" y="-144" type="move" name="btm"/>
    </contour>
    <contour>
      <point x="177" y="1444" type="move" name="top"/>
    </contour>
    <contour>
      <point x="1045" y="1225" type="line"/>
      <point x="1136" y="1257" type="line"/>
      <point x="1135" y="1292" type="line"/>
      <point x="282" y="1292" type="line"/>
      <point x="282" y="1257" type="line"/>
      <point x="394" y="1222" type="line"/>
      <point x="391" y="1081" type="line" smooth="yes"/>
      <point x="382" y="674"/>
      <point x="344" y="429"/>
      <point x="283" y="315" type="curve" smooth="yes"/>
      <point x="258" y="259"/>
      <point x="215" y="226"/>
      <point x="153" y="226" type="curve" smooth="yes"/>
      <point x="109" y="226"/>
      <point x="82" y="231"/>
      <point x="65" y="237" type="curve"/>
      <point x="63" y="1" type="line"/>
      <point x="87" y="-13"/>
      <point x="128" y="-26"/>
      <point x="180" y="-26" type="curve" smooth="yes"/>
      <point x="300" y="-26"/>
      <point x="370" y="54"/>
      <point x="411" y="218" type="curve" smooth="yes"/>
      <point x="448" y="388"/>
      <point x="459" y="665"/>
      <point x="463" y="1058" type="curve" smooth="yes"/>
      <point x="465" y="1221" type="line"/>
      <point x="693" y="1221" type="line"/>
      <point x="693" y="67" type="line"/>
      <point x="561" y="35" type="line"/>
      <point x="562" y="0" type="line"/>
      <point x="952" y="0" type="line"/>
      <point x="967" y="-81"/>
      <point x="981" y="-270"/>
      <point x="985" y="-370" type="curve"/>
      <point x="1116" y="-370" type="line"/>
      <point x="1143" y="-257"/>
      <point x="1183" y="-53"/>
      <point x="1191" y="69" type="curve"/>
      <point x="1046" y="69" type="line"/>
    </contour>
  </outline>
</glyph>
<glyph name="elhook-cy.sc" format="1">
  <advance width="1247"/>
  <outline>
    <contour>
      <point x="967" y="-25" type="curve" smooth="yes"/>
      <point x="1078" y="139"/>
      <point x="1037" y="571"/>
      <point x="1030" y="1225" type="curve"/>
      <point x="1120" y="1257" type="line"/>
      <point x="1120" y="1292" type="line"/>
      <point x="288" y="1292" type="line"/>
      <point x="287" y="1257" type="line"/>
      <point x="398" y="1222" type="line"/>
      <point x="396" y="1081" type="line" smooth="yes"/>
      <point x="386" y="674"/>
      <point x="350" y="429"/>
      <point x="288" y="315" type="curve" smooth="yes"/>
      <point x="263" y="259"/>
      <point x="221" y="226"/>
      <point x="159" y="226" type="curve" smooth="yes"/>
      <point x="115" y="226"/>
      <point x="87" y="231"/>
      <point x="70" y="237" type="curve"/>
      <point x="68" y="1" type="line"/>
      <point x="91" y="-13"/>
      <point x="133" y="-26"/>
      <point x="185" y="-26" type="curve" smooth="yes"/>
      <point x="305" y="-26"/>
      <point x="375" y="54"/>
      <point x="417" y="218" type="curve" smooth="yes"/>
      <point x="452" y="388"/>
      <point x="464" y="665"/>
      <point x="469" y="1058" type="curve" smooth="yes"/>
      <point x="470" y="1221" type="line"/>
      <point x="698" y="1221" type="line"/>
      <point x="712" y="604"/>
      <point x="727" y="160"/>
      <point x="669" y="-9" type="curve" smooth="yes"/>
      <point x="632" y="-123"/>
      <point x="575" y="-191"/>
      <point x="502" y="-243" type="curve"/>
      <point x="540" y="-292" type="line"/>
      <point x="766" y="-233"/>
      <point x="899" y="-136"/>
    </contour>
  </outline>
</glyph>
<glyph name="eltail-cy.sc" format="1">
  <advance width="1327"/>
  <outline>
    <contour>
      <point x="522" y="-144" type="move" name="btm"/>
    </contour>
    <contour>
      <point x="378" y="1444" type="move" name="top"/>
    </contour>
    <contour>
      <point x="1224" y="19" type="curve"/>
      <point x="1223" y="39" type="line"/>
      <point x="1046" y="73" type="line"/>
      <point x="1045" y="1225" type="line"/>
      <point x="1136" y="1257" type="line"/>
      <point x="1135" y="1292" type="line"/>
      <point x="283" y="1292" type="line"/>
      <point x="283" y="1257" type="line"/>
      <point x="394" y="1222" type="line"/>
      <point x="391" y="1081" type="line" smooth="yes"/>
      <point x="382" y="674"/>
      <point x="344" y="429"/>
      <point x="283" y="315" type="curve" smooth="yes"/>
      <point x="258" y="259"/>
      <point x="215" y="226"/>
      <point x="153" y="226" type="curve" smooth="yes"/>
      <point x="109" y="226"/>
      <point x="82" y="231"/>
      <point x="65" y="237" type="curve"/>
      <point x="63" y="1" type="line"/>
      <point x="87" y="-13"/>
      <point x="128" y="-26"/>
      <point x="180" y="-26" type="curve" smooth="yes"/>
      <point x="300" y="-26"/>
      <point x="370" y="54"/>
      <point x="411" y="218" type="curve" smooth="yes"/>
      <point x="448" y="388"/>
      <point x="459" y="665"/>
      <point x="463" y="1058" type="curve" smooth="yes"/>
      <point x="465" y="1221" type="line"/>
      <point x="694" y="1221" type="line"/>
      <point x="693" y="67" type="line"/>
      <point x="561" y="35" type="line"/>
      <point x="562" y="0" type="line"/>
      <point x="961" y="0" type="line"/>
      <point x="954" y="-83"/>
      <point x="910" y="-214"/>
      <point x="829" y="-309" type="curve"/>
      <point x="911" y="-370" type="line"/>
      <point x="1082" y="-299"/>
      <point x="1195" y="-117"/>
    </contour>
  </outline>
</glyph>
<glyph name="enhook-cy.sc" format="1">
  <advance width="1357"/>
  <outline>
    <contour>
      <point x="552" y="-144" type="move" name="btm"/>
    </contour>
    <contour>
      <point x="343" y="1444" type="move" name="top"/>
    </contour>
    <contour>
      <point x="695" y="686" type="curve"/>
      <point x="409" y="686" type="line"/>
      <point x="409" y="1225" type="line"/>
      <point x="524" y="1257" type="line"/>
      <point x="523" y="1292" type="line"/>
      <point x="-34" y="1292" type="line"/>
      <point x="-34" y="1257" type="line"/>
      <point x="56" y="1225" type="line"/>
      <point x="57" y="67" type="line"/>
      <point x="-34" y="35" type="line"/>
      <point x="-33" y="0" type="line"/>
      <point x="510" y="0" type="line"/>
      <point x="510" y="35" type="line"/>
      <point x="410" y="67" type="line"/>
      <point x="409" y="621" type="line"/>
      <point x="695" y="621" type="line"/>
      <point x="693" y="365"/>
      <point x="681" y="126"/>
      <point x="641" y="8" type="curve" smooth="yes"/>
      <point x="610" y="-96"/>
      <point x="563" y="-171"/>
      <point x="489" y="-223" type="curve"/>
      <point x="526" y="-270" type="line"/>
      <point x="771" y="-214"/>
      <point x="939" y="-107"/>
      <point x="1000" y="94" type="curve" smooth="yes"/>
      <point x="1056" y="271"/>
      <point x="1033" y="723"/>
      <point x="1038" y="1225" type="curve"/>
      <point x="1129" y="1257" type="line"/>
      <point x="1128" y="1292" type="line"/>
      <point x="581" y="1292" type="line"/>
      <point x="581" y="1257" type="line"/>
      <point x="683" y="1225" type="line"/>
      <point x="690" y="1068"/>
      <point x="695" y="875"/>
    </contour>
  </outline>
</glyph>
<glyph name="enlefthook-cy.sc" format="1">
  <advance width="1290"/>
  <outline>
    <contour>
      <point x="482" y="624" type="curve"/>
      <point x="760" y="624" type="line"/>
      <point x="760" y="67" type="line"/>
      <point x="656" y="35" type="line"/>
      <point x="657" y="0" type="line"/>
      <point x="1200" y="0" type="line"/>
      <point x="1200" y="35" type="line"/>
      <point x="1113" y="67" type="line"/>
      <point x="1112" y="1225" type="line"/>
      <point x="1203" y="1257" type="line"/>
      <point x="1201" y="1292" type="line"/>
      <point x="656" y="1292" type="line"/>
      <point x="656" y="1257" type="line"/>
      <point x="759" y="1225" type="line"/>
      <point x="759" y="684" type="line"/>
      <point x="480" y="684" type="line"/>
      <point x="478" y="847"/>
      <point x="480" y="1033"/>
      <point x="480" y="1225" type="curve"/>
      <point x="596" y="1257" type="line"/>
      <point x="594" y="1292" type="line"/>
      <point x="3" y="1292" type="line"/>
      <point x="3" y="1257" type="line"/>
      <point x="125" y="1225" type="line"/>
      <point x="135" y="1060"/>
      <point x="138" y="830"/>
      <point x="140" y="624" type="curve" smooth="yes"/>
      <point x="140" y="384"/>
      <point x="132" y="139"/>
      <point x="89" y="8" type="curve" smooth="yes"/>
      <point x="59" y="-96"/>
      <point x="11" y="-171"/>
      <point x="-62" y="-223" type="curve"/>
      <point x="-25" y="-270" type="line"/>
      <point x="221" y="-214"/>
      <point x="388" y="-107"/>
      <point x="449" y="94" type="curve" smooth="yes"/>
      <point x="479" y="195"/>
      <point x="482" y="336"/>
    </contour>
  </outline>
</glyph>
<glyph name="ereversed-cy.sc" format="1">
  <advance width="1004"/>
  <outline>
    <contour>
      <point x="396" y="1292" type="move" name="top"/>
    </contour>
    <contour>
      <point x="-28" y="1231" type="curve"/>
      <point x="-27" y="889" type="line"/>
      <point x="187" y="889" type="line"/>
      <point x="217" y="1131" type="line"/>
      <point x="236" y="1191"/>
      <point x="268" y="1251"/>
      <point x="358" y="1251" type="curve" smooth="yes"/>
      <point x="514" y="1251"/>
      <point x="565" y="958"/>
      <point x="587" y="754" type="curve" smooth="yes"/>
      <point x="591" y="726"/>
      <point x="592" y="693"/>
      <point x="591" y="687" type="curve"/>
      <point x="202" y="751" type="line"/>
      <point x="200" y="546" type="line"/>
      <point x="267" y="561"/>
      <point x="449" y="585"/>
      <point x="593" y="600" type="curve"/>
      <point x="599" y="260"/>
      <point x="510" y="40"/>
      <point x="392" y="40" type="curve" smooth="yes"/>
      <point x="315" y="40"/>
      <point x="256" y="66"/>
      <point x="203" y="114" type="curve"/>
      <point x="164" y="406" type="line"/>
      <point x="-9" y="405" type="line"/>
      <point x="-18" y="94" type="line"/>
      <point x="104" y="49"/>
      <point x="244" y="-18"/>
      <point x="400" y="-18" type="curve" smooth="yes"/>
      <point x="776" y="-18"/>
      <point x="990" y="303"/>
      <point x="938" y="748" type="curve" smooth="yes"/>
      <point x="893" y="1121"/>
      <point x="704" y="1310"/>
      <point x="383" y="1310" type="curve" smooth="yes"/>
      <point x="213" y="1310"/>
      <point x="53" y="1266"/>
    </contour>
  </outline>
</glyph>
<glyph name="ge-cy.sc" format="1">
  <advance width="851"/>
  <outline>
    <contour>
      <point x="370" y="1292" type="move" name="top"/>
    </contour>
    <contour>
      <point x="413" y="648" type="move" name="center"/>
    </contour>
    <contour>
      <point x="119" y="0" type="move" name="bottomright"/>
    </contour>
    <contour>
      <point x="-11" y="1292" type="line"/>
      <point x="-11" y="1257" type="line"/>
      <point x="79" y="1225" type="line"/>
      <point x="79" y="67" type="line"/>
      <point x="-10" y="35" type="line"/>
      <point x="-10" y="0" type="line"/>
      <point x="628" y="0" type="line"/>
      <point x="628" y="35" type="line"/>
      <point x="432" y="67" type="line"/>
      <point x="431" y="1241" type="line"/>
      <point x="586" y="1231" type="line"/>
      <point x="691" y="800" type="line"/>
      <point x="833" y="800" type="line"/>
      <point x="841" y="1292" type="line"/>
    </contour>
  </outline>
</glyph>
<glyph name="gedescender-cy.sc" format="1">
  <advance width="862"/>
  <outline>
    <contour>
      <point x="635" y="69" type="curve"/>
      <point x="412" y="70" type="line"/>
      <point x="409" y="1241" type="line"/>
      <point x="564" y="1231" type="line"/>
      <point x="670" y="800" type="line"/>
      <point x="812" y="800" type="line"/>
      <point x="818" y="1292" type="line"/>
      <point x="-33" y="1292" type="line"/>
      <point x="-33" y="1257" type="line"/>
      <point x="57" y="1225" type="line"/>
      <point x="58" y="67" type="line"/>
      <point x="-33" y="35" type="line"/>
      <point x="-32" y="0" type="line"/>
      <point x="396" y="0" type="line"/>
      <point x="411" y="-81"/>
      <point x="425" y="-270"/>
      <point x="429" y="-370" type="curve"/>
      <point x="560" y="-370" type="line"/>
      <point x="588" y="-257"/>
      <point x="628" y="-53"/>
    </contour>
  </outline>
</glyph>
<glyph name="gestrokehook-cy.sc" format="1">
  <advance width="844"/>
  <outline>
    <contour>
      <point x="508" y="-449" type="curve" smooth="yes"/>
      <point x="646" y="-449"/>
      <point x="694" y="-337"/>
      <point x="676" y="-175" type="curve" smooth="yes"/>
      <point x="663" y="-76"/>
      <point x="621" y="-2"/>
      <point x="595" y="34" type="curve"/>
      <point x="399" y="67" type="line"/>
      <point x="399" y="614" type="line"/>
      <point x="596" y="614" type="line"/>
      <point x="595" y="670" type="line"/>
      <point x="399" y="670" type="line"/>
      <point x="399" y="1241" type="line"/>
      <point x="552" y="1231" type="line"/>
      <point x="658" y="800" type="line"/>
      <point x="799" y="800" type="line"/>
      <point x="807" y="1292" type="line"/>
      <point x="-43" y="1292" type="line"/>
      <point x="-43" y="1257" type="line"/>
      <point x="45" y="1225" type="line"/>
      <point x="45" y="670" type="line"/>
      <point x="-63" y="670" type="line"/>
      <point x="-64" y="614" type="line"/>
      <point x="45" y="614" type="line"/>
      <point x="45" y="67" type="line"/>
      <point x="-44" y="35" type="line"/>
      <point x="-43" y="0" type="line"/>
      <point x="561" y="0" type="line"/>
      <point x="572" y="-24"/>
      <point x="586" y="-54"/>
      <point x="594" y="-108" type="curve" smooth="yes"/>
      <point x="605" y="-214"/>
      <point x="547" y="-269"/>
      <point x="459" y="-269" type="curve" smooth="yes"/>
      <point x="410" y="-269"/>
      <point x="371" y="-261"/>
      <point x="353" y="-253" type="curve"/>
      <point x="351" y="-406" type="line"/>
      <point x="396" y="-435"/>
      <point x="458" y="-449"/>
    </contour>
  </outline>
</glyph>
<glyph name="ghemiddlehook-cy.sc" format="1">
  <advance width="1063"/>
  <outline>
    <contour>
      <point x="414" y="658" type="curve"/>
      <point x="414" y="1242" type="line"/>
      <point x="611" y="1236" type="line"/>
      <point x="720" y="918" type="line"/>
      <point x="864" y="918" type="line"/>
      <point x="870" y="1292" type="line"/>
      <point x="-29" y="1292" type="line"/>
      <point x="-29" y="1257" type="line"/>
      <point x="61" y="1225" type="line"/>
      <point x="62" y="67" type="line"/>
      <point x="-29" y="35" type="line"/>
      <point x="-28" y="0" type="line"/>
      <point x="560" y="0" type="line"/>
      <point x="560" y="35" type="line"/>
      <point x="415" y="67" type="line"/>
      <point x="414" y="584" type="line"/>
      <point x="454" y="617"/>
      <point x="498" y="638"/>
      <point x="546" y="638" type="curve" smooth="yes"/>
      <point x="650" y="638"/>
      <point x="677" y="512"/>
      <point x="692" y="377" type="curve" smooth="yes"/>
      <point x="728" y="91"/>
      <point x="680" y="-243"/>
      <point x="437" y="-243" type="curve" smooth="yes"/>
      <point x="427" y="-243"/>
      <point x="415" y="-242"/>
      <point x="404" y="-239" type="curve"/>
      <point x="405" y="-306" type="line"/>
      <point x="420" y="-310"/>
      <point x="445" y="-312"/>
      <point x="468" y="-312" type="curve" smooth="yes"/>
      <point x="830" y="-312"/>
      <point x="1079" y="-37"/>
      <point x="1030" y="373" type="curve" smooth="yes"/>
      <point x="1002" y="616"/>
      <point x="889" y="740"/>
      <point x="682" y="740" type="curve" smooth="yes"/>
      <point x="588" y="740"/>
      <point x="489" y="711"/>
    </contour>
  </outline>
</glyph>
<glyph name="ghestroke-cy.sc" format="1">
  <advance width="931"/>
  <outline>
    <contour>
      <point x="62" y="1292" type="line"/>
      <point x="61" y="1257" type="line"/>
      <point x="152" y="1225" type="line"/>
      <point x="152" y="664" type="line"/>
      <point x="47" y="664" type="line"/>
      <point x="44" y="606" type="line"/>
      <point x="151" y="606" type="line"/>
      <point x="152" y="67" type="line"/>
      <point x="62" y="35" type="line"/>
      <point x="62" y="0" type="line"/>
      <point x="700" y="0" type="line"/>
      <point x="701" y="35" type="line"/>
      <point x="504" y="67" type="line"/>
      <point x="504" y="606" type="line"/>
      <point x="704" y="606" type="line"/>
      <point x="705" y="664" type="line"/>
      <point x="505" y="664" type="line"/>
      <point x="503" y="1241" type="line"/>
      <point x="658" y="1231" type="line"/>
      <point x="764" y="800" type="line"/>
      <point x="906" y="800" type="line"/>
      <point x="913" y="1292" type="line"/>
    </contour>
  </outline>
</glyph>
<glyph name="gheupturn-cy.sc" format="1">
  <advance width="765"/>
  <outline>
    <contour>
      <point x="200" y="-144" type="move" name="btm"/>
    </contour>
    <contour>
      <point x="589" y="-144" type="move" name="mark0"/>
    </contour>
    <contour>
      <point x="616" y="1602" type="line"/>
      <point x="502" y="1292" type="line"/>
      <point x="7" y="1292" type="line"/>
      <point x="7" y="1257" type="line"/>
      <point x="97" y="1225" type="line"/>
      <point x="99" y="67" type="line"/>
      <point x="8" y="35" type="line"/>
      <point x="9" y="0" type="line"/>
      <point x="646" y="0" type="line"/>
      <point x="646" y="35" type="line"/>
      <point x="451" y="67" type="line"/>
      <point x="450" y="1241" type="line"/>
      <point x="716" y="1223" type="line"/>
      <point x="713" y="1602" type="line"/>
    </contour>
  </outline>
</glyph>
<glyph name="gje-cy.sc" format="1">
  <advance width="851"/>
  <outline>
    <contour>
      <point x="295" y="1310" type="line"/>
      <point x="423" y="1357"/>
      <point x="593" y="1477"/>
      <point x="682" y="1612" type="curve"/>
      <point x="485" y="1754" type="line"/>
      <point x="213" y="1363" type="line"/>
    </contour>
    <contour>
      <point x="-11" y="1292" type="line"/>
      <point x="-11" y="1257" type="line"/>
      <point x="79" y="1225" type="line"/>
      <point x="79" y="67" type="line"/>
      <point x="-10" y="35" type="line"/>
      <point x="-10" y="0" type="line"/>
      <point x="628" y="0" type="line"/>
      <point x="628" y="35" type="line"/>
      <point x="432" y="67" type="line"/>
      <point x="431" y="1241" type="line"/>
      <point x="586" y="1231" type="line"/>
      <point x="691" y="800" type="line"/>
      <point x="833" y="800" type="line"/>
      <point x="841" y="1292" type="line"/>
    </contour>
  </outline>
</glyph>
<glyph name="haabkhasian-cy.sc" format="1">
  <advance width="1480"/>
  <outline>
    <contour>
      <point x="643" y="1292" type="move" name="top"/>
    </contour>
    <contour>
      <point x="699" y="-23" type="curve" smooth="yes"/>
      <point x="852" y="-23"/>
      <point x="934" y="20"/>
      <point x="1007" y="75" type="curve"/>
      <point x="872" y="53" type="line"/>
      <point x="934" y="6"/>
      <point x="1022" y="-13"/>
      <point x="1088" y="-13" type="curve" smooth="yes"/>
      <point x="1141" y="-13"/>
      <point x="1188" y="-5"/>
      <point x="1213" y="10" type="curve"/>
      <point x="1220" y="70" type="line"/>
      <point x="1212" y="62"/>
      <point x="1183" y="51"/>
      <point x="1136" y="51" type="curve" smooth="yes"/>
      <point x="1085" y="51"/>
      <point x="1019" y="63"/>
      <point x="969" y="116" type="curve"/>
      <point x="1001" y="75" type="line"/>
      <point x="1270" y="215"/>
      <point x="1374" y="475"/>
      <point x="1346" y="723" type="curve" smooth="yes"/>
      <point x="1317" y="965"/>
      <point x="1170" y="1101"/>
      <point x="957" y="1101" type="curve" smooth="yes"/>
      <point x="676" y="1101"/>
      <point x="545" y="856"/>
      <point x="583" y="532" type="curve" smooth="yes"/>
      <point x="609" y="313"/>
      <point x="722" y="134"/>
      <point x="885" y="45" type="curve"/>
      <point x="926" y="89" type="line"/>
      <point x="916" y="78"/>
      <point x="861" y="43"/>
      <point x="759" y="43" type="curve" smooth="yes"/>
      <point x="555" y="43"/>
      <point x="459" y="288"/>
      <point x="431" y="540" type="curve" smooth="yes"/>
      <point x="394" y="860"/>
      <point x="435" y="1242"/>
      <point x="701" y="1242" type="curve" smooth="yes"/>
      <point x="744" y="1242"/>
      <point x="804" y="1234"/>
      <point x="870" y="1189" type="curve"/>
      <point x="889" y="1242" type="line"/>
      <point x="822" y="1301"/>
      <point x="709" y="1310"/>
      <point x="651" y="1310" type="curve" smooth="yes"/>
      <point x="245" y="1310"/>
      <point x="32" y="1003"/>
      <point x="88" y="540" type="curve" smooth="yes"/>
      <point x="132" y="168"/>
      <point x="376" y="-23"/>
    </contour>
    <contour>
      <point x="950" y="1049" type="curve" smooth="yes"/>
      <point x="1030" y="1049"/>
      <point x="1052" y="896"/>
      <point x="1064" y="788" type="curve" smooth="yes"/>
      <point x="1101" y="483"/>
      <point x="1069" y="171"/>
      <point x="915" y="85" type="curve"/>
      <point x="997" y="98" type="line"/>
      <point x="946" y="138"/>
      <point x="869" y="288"/>
      <point x="837" y="543" type="curve" smooth="yes"/>
      <point x="819" y="717"/>
      <point x="814" y="1049"/>
    </contour>
  </outline>
</glyph>
<glyph name="hadescender-cy.sc" format="1">
  <advance width="978"/>
  <outline>
    <contour>
      <point x="413" y="-144" type="move" name="btm"/>
    </contour>
    <contour>
      <point x="414" y="1444" type="move" name="top"/>
    </contour>
    <contour>
      <point x="1117" y="69" type="curve"/>
      <point x="911" y="70" type="line"/>
      <point x="591" y="727" type="line"/>
      <point x="880" y="1216" type="line"/>
      <point x="1006" y="1256" type="line"/>
      <point x="1006" y="1291" type="line"/>
      <point x="630" y="1291" type="line"/>
      <point x="630" y="1256" type="line"/>
      <point x="788" y="1216" type="line"/>
      <point x="560" y="787" type="line"/>
      <point x="400" y="1216" type="line"/>
      <point x="520" y="1257" type="line"/>
      <point x="520" y="1292" type="line"/>
      <point x="-101" y="1292" type="line"/>
      <point x="-99" y="1257" type="line"/>
      <point x="8" y="1216" type="line"/>
      <point x="318" y="579" type="line"/>
      <point x="20" y="71" type="line"/>
      <point x="-119" y="35" type="line"/>
      <point x="-119" y="0" type="line"/>
      <point x="285" y="0" type="line"/>
      <point x="284" y="35" type="line"/>
      <point x="119" y="70" type="line"/>
      <point x="349" y="518" type="line"/>
      <point x="521" y="73" type="line"/>
      <point x="404" y="35" type="line"/>
      <point x="404" y="0" type="line"/>
      <point x="879" y="0" type="line"/>
      <point x="893" y="-81"/>
      <point x="908" y="-270"/>
      <point x="911" y="-370" type="curve"/>
      <point x="1042" y="-370" type="line"/>
      <point x="1070" y="-257"/>
      <point x="1110" y="-53"/>
    </contour>
  </outline>
</glyph>
<glyph name="hahook-cy.sc" format="1">
  <advance width="1192"/>
  <outline>
    <contour>
      <point x="658" y="728" type="curve"/>
      <point x="946" y="1216" type="line"/>
      <point x="1073" y="1256" type="line"/>
      <point x="1073" y="1291" type="line"/>
      <point x="697" y="1291" type="line"/>
      <point x="697" y="1256" type="line"/>
      <point x="853" y="1216" type="line"/>
      <point x="627" y="787" type="line"/>
      <point x="466" y="1216" type="line"/>
      <point x="587" y="1257" type="line"/>
      <point x="587" y="1292" type="line"/>
      <point x="-34" y="1292" type="line"/>
      <point x="-32" y="1257" type="line"/>
      <point x="73" y="1216" type="line"/>
      <point x="385" y="579" type="line"/>
      <point x="87" y="71" type="line"/>
      <point x="-52" y="35" type="line"/>
      <point x="-52" y="0" type="line"/>
      <point x="352" y="0" type="line"/>
      <point x="351" y="35" type="line"/>
      <point x="185" y="70" type="line"/>
      <point x="418" y="520" type="line"/>
      <point x="514" y="299"/>
      <point x="571" y="128"/>
      <point x="588" y="-11" type="curve" smooth="yes"/>
      <point x="602" y="-124"/>
      <point x="634" y="-231"/>
      <point x="498" y="-276" type="curve"/>
      <point x="515" y="-315" type="line"/>
      <point x="797" y="-250"/>
      <point x="914" y="-111"/>
      <point x="886" y="115" type="curve" smooth="yes"/>
      <point x="870" y="250"/>
      <point x="836" y="384"/>
    </contour>
  </outline>
</glyph>
<glyph name="hardsign-cy.sc" format="1">
  <advance width="1314"/>
  <outline>
    <contour>
      <point x="487" y="-144" type="move" name="btm"/>
    </contour>
    <contour>
      <point x="352" y="1444" type="move" name="top"/>
    </contour>
    <contour>
      <point x="704" y="754" type="curve"/>
      <point x="704" y="1225" type="line"/>
      <point x="809" y="1257" type="line"/>
      <point x="808" y="1292" type="line"/>
      <point x="-9" y="1292" type="line"/>
      <point x="-13" y="893" type="line"/>
      <point x="152" y="893" type="line"/>
      <point x="256" y="1234" type="line"/>
      <point x="351" y="1243" type="line"/>
      <point x="352" y="67" type="line"/>
      <point x="261" y="35" type="line"/>
      <point x="262" y="0" type="line"/>
      <point x="445" y="0" type="line" smooth="yes"/>
      <point x="563" y="0"/>
      <point x="691" y="-18"/>
      <point x="809" y="-18" type="curve" smooth="yes"/>
      <point x="1082" y="-18"/>
      <point x="1333" y="93"/>
      <point x="1295" y="413" type="curve" smooth="yes"/>
      <point x="1262" y="685"/>
      <point x="1062" y="772"/>
      <point x="827" y="772" type="curve" smooth="yes"/>
      <point x="783" y="772"/>
      <point x="738" y="764"/>
    </contour>
    <contour>
      <point x="706" y="63" type="curve"/>
      <point x="705" y="691" type="line"/>
      <point x="720" y="697"/>
      <point x="745" y="701"/>
      <point x="757" y="701" type="curve" smooth="yes"/>
      <point x="882" y="701"/>
      <point x="909" y="589"/>
      <point x="926" y="427" type="curve" smooth="yes"/>
      <point x="945" y="242"/>
      <point x="933" y="40"/>
      <point x="791" y="40" type="curve" smooth="yes"/>
      <point x="740" y="40"/>
      <point x="717" y="53"/>
    </contour>
  </outline>
</glyph>
<glyph name="ia-cy.sc" format="1">
  <advance width="1212"/>
  <outline>
    <contour>
      <point x="700" y="-144" type="move" name="btm"/>
    </contour>
    <contour>
      <point x="800" y="1454" type="move" name="top"/>
    </contour>
    <contour>
      <point x="824" y="557" type="curve"/>
      <point x="824" y="67" type="line"/>
      <point x="726" y="35" type="line"/>
      <point x="727" y="0" type="line"/>
      <point x="1264" y="0" type="line"/>
      <point x="1264" y="35" type="line"/>
      <point x="1176" y="67" type="line"/>
      <point x="1175" y="1225" type="line"/>
      <point x="1266" y="1257" type="line"/>
      <point x="1265" y="1292" type="line"/>
      <point x="1015" y="1292" type="line" smooth="yes"/>
      <point x="878" y="1292"/>
      <point x="818" y="1297"/>
      <point x="715" y="1297" type="curve" smooth="yes"/>
      <point x="463" y="1297"/>
      <point x="235" y="1168"/>
      <point x="268" y="872" type="curve" smooth="yes"/>
      <point x="283" y="740"/>
      <point x="359" y="591"/>
      <point x="511" y="591" type="curve"/>
      <point x="262" y="537"/>
      <point x="253" y="88"/>
      <point x="128" y="46" type="curve" smooth="yes"/>
      <point x="91" y="35" type="line"/>
      <point x="93" y="0" type="line"/>
      <point x="507" y="0" type="line" smooth="yes"/>
      <point x="639" y="0"/>
      <point x="626" y="518"/>
      <point x="704" y="554" type="curve"/>
      <point x="749" y="553"/>
      <point x="804" y="554"/>
    </contour>
    <contour>
      <point x="824" y="1243" type="curve"/>
      <point x="823" y="619" type="line"/>
      <point x="804" y="615"/>
      <point x="787" y="614"/>
      <point x="755" y="614" type="curve" smooth="yes"/>
      <point x="662" y="614"/>
      <point x="639" y="763"/>
      <point x="626" y="887" type="curve" smooth="yes"/>
      <point x="610" y="1049"/>
      <point x="629" y="1248"/>
      <point x="749" y="1248" type="curve" smooth="yes"/>
      <point x="785" y="1248"/>
      <point x="804" y="1246"/>
    </contour>
  </outline>
</glyph>
<glyph name="idieresis-cy.sc" format="1">
  <advance width="1250"/>
  <outline>
    <contour>
      <point x="765" y="1320" type="curve"/>
      <point x="859" y="1320"/>
      <point x="920" y="1417"/>
      <point x="920" y="1516" type="curve" smooth="yes"/>
      <point x="920" y="1606"/>
      <point x="869" y="1666"/>
      <point x="780" y="1666" type="curve" smooth="yes"/>
      <point x="683" y="1666"/>
      <point x="620" y="1577"/>
      <point x="620" y="1489" type="curve" smooth="yes"/>
      <point x="620" y="1388"/>
      <point x="673" y="1320"/>
    </contour>
    <contour>
      <point x="365" y="1320" type="curve"/>
      <point x="462" y="1320"/>
      <point x="525" y="1417"/>
      <point x="525" y="1516" type="curve" smooth="yes"/>
      <point x="525" y="1608"/>
      <point x="472" y="1666"/>
      <point x="380" y="1666" type="curve" smooth="yes"/>
      <point x="286" y="1666"/>
      <point x="225" y="1577"/>
      <point x="225" y="1489" type="curve" smooth="yes"/>
      <point x="225" y="1388"/>
      <point x="276" y="1320"/>
    </contour>
    <contour>
      <point x="-10" y="1292" type="line"/>
      <point x="-11" y="1257" type="line"/>
      <point x="80" y="1225" type="line"/>
      <point x="80" y="67" type="line"/>
      <point x="-10" y="35" type="line"/>
      <point x="-10" y="0" type="line"/>
      <point x="533" y="0" type="line"/>
      <point x="534" y="35" type="line"/>
      <point x="433" y="67" type="line"/>
      <point x="434" y="197" type="line"/>
      <point x="663" y="833" type="line"/>
      <point x="730" y="979" type="line"/>
      <point x="731" y="67" type="line"/>
      <point x="628" y="35" type="line"/>
      <point x="628" y="0" type="line"/>
      <point x="1171" y="0" type="line"/>
      <point x="1172" y="35" type="line"/>
      <point x="1084" y="67" type="line"/>
      <point x="1084" y="1225" type="line"/>
      <point x="1173" y="1257" type="line"/>
      <point x="1173" y="1292" type="line"/>
      <point x="627" y="1292" type="line"/>
      <point x="627" y="1257" type="line"/>
      <point x="731" y="1225" type="line"/>
      <point x="731" y="1100" type="line"/>
      <point x="546" y="550" type="line"/>
      <point x="433" y="335" type="line"/>
      <point x="433" y="1225" type="line"/>
      <point x="547" y="1257" type="line"/>
      <point x="547" y="1292" type="line"/>
    </contour>
  </outline>
</glyph>
<glyph name="ii-cy.sc" format="1">
  <advance width="1250"/>
  <outline>
    <contour>
      <point x="573" y="1292" type="move" name="top"/>
    </contour>
    <contour>
      <point x="1276" y="0" type="move" name="bottomright"/>
    </contour>
    <contour>
      <point x="-10" y="1292" type="line"/>
      <point x="-11" y="1257" type="line"/>
      <point x="80" y="1225" type="line"/>
      <point x="80" y="67" type="line"/>
      <point x="-10" y="35" type="line"/>
      <point x="-10" y="0" type="line"/>
      <point x="533" y="0" type="line"/>
      <point x="534" y="35" type="line"/>
      <point x="433" y="67" type="line"/>
      <point x="434" y="197" type="line"/>
      <point x="663" y="833" type="line"/>
      <point x="730" y="979" type="line"/>
      <point x="731" y="67" type="line"/>
      <point x="628" y="35" type="line"/>
      <point x="628" y="0" type="line"/>
      <point x="1171" y="0" type="line"/>
      <point x="1172" y="35" type="line"/>
      <point x="1084" y="67" type="line"/>
      <point x="1084" y="1225" type="line"/>
      <point x="1173" y="1257" type="line"/>
      <point x="1173" y="1292" type="line"/>
      <point x="627" y="1292" type="line"/>
      <point x="627" y="1257" type="line"/>
      <point x="731" y="1225" type="line"/>
      <point x="731" y="1100" type="line"/>
      <point x="546" y="550" type="line"/>
      <point x="433" y="335" type="line"/>
      <point x="433" y="1225" type="line"/>
      <point x="547" y="1257" type="line"/>
      <point x="547" y="1292" type="line"/>
    </contour>
  </outline>
</glyph>
<glyph name="iigrave-cy.sc" format="1">
  <advance width="1250"/>
  <outline>
    <contour>
      <point x="657" y="1309" type="curve"/>
      <point x="739" y="1362" type="line"/>
      <point x="468" y="1753" type="line"/>
      <point x="270" y="1611" type="line"/>
      <point x="360" y="1476"/>
      <point x="530" y="1356"/>
    </contour>
    <contour>
      <point x="-10" y="1292" type="line"/>
      <point x="-11" y="1257" type="line"/>
      <point x="80" y="1225" type="line"/>
      <point x="80" y="67" type="line"/>
      <point x="-10" y="35" type="line"/>
      <point x="-10" y="0" type="line"/>
      <point x="533" y="0" type="line"/>
      <point x="534" y="35" type="line"/>
      <point x="433" y="67" type="line"/>
      <point x="434" y="197" type="line"/>
      <point x="663" y="833" type="line"/>
      <point x="730" y="979" type="line"/>
      <point x="731" y="67" type="line"/>
      <point x="628" y="35" type="line"/>
      <point x="628" y="0" type="line"/>
      <point x="1171" y="0" type="line"/>
      <point x="1172" y="35" type="line"/>
      <point x="1084" y="67" type="line"/>
      <point x="1084" y="1225" type="line"/>
      <point x="1173" y="1257" type="line"/>
      <point x="1173" y="1292" type="line"/>
      <point x="627" y="1292" type="line"/>
      <point x="627" y="1257" type="line"/>
      <point x="731" y="1225" type="line"/>
      <point x="731" y="1100" type="line"/>
      <point x="546" y="550" type="line"/>
      <point x="433" y="335" type="line"/>
      <point x="433" y="1225" type="line"/>
      <point x="547" y="1257" type="line"/>
      <point x="547" y="1292" type="line"/>
    </contour>
  </outline>
</glyph>
<glyph name="iishort-cy.sc" format="1">
  <advance width="1250"/>
  <outline>
    <contour>
      <point x="413" y="1656" type="curve" smooth="yes"/>
      <point x="261" y="1656" type="line"/>
      <point x="258" y="1638"/>
      <point x="257" y="1620"/>
      <point x="257" y="1602" type="curve" smooth="yes"/>
      <point x="257" y="1419"/>
      <point x="371" y="1300"/>
      <point x="571" y="1300" type="curve" smooth="yes"/>
      <point x="771" y="1300"/>
      <point x="886" y="1419"/>
      <point x="886" y="1602" type="curve" smooth="yes"/>
      <point x="886" y="1620"/>
      <point x="886" y="1638"/>
      <point x="882" y="1656" type="curve"/>
      <point x="730" y="1656" type="line" smooth="yes"/>
      <point x="677" y="1656"/>
      <point x="667" y="1608"/>
      <point x="667" y="1531" type="curve" smooth="yes"/>
      <point x="667" y="1419"/>
      <point x="638" y="1350"/>
      <point x="571" y="1350" type="curve" smooth="yes"/>
      <point x="504" y="1350"/>
      <point x="476" y="1419"/>
      <point x="476" y="1531" type="curve" smooth="yes"/>
      <point x="476" y="1608"/>
      <point x="466" y="1656"/>
    </contour>
    <contour>
      <point x="-10" y="1292" type="line"/>
      <point x="-11" y="1257" type="line"/>
      <point x="80" y="1225" type="line"/>
      <point x="80" y="67" type="line"/>
      <point x="-10" y="35" type="line"/>
      <point x="-10" y="0" type="line"/>
      <point x="533" y="0" type="line"/>
      <point x="534" y="35" type="line"/>
      <point x="433" y="67" type="line"/>
      <point x="434" y="197" type="line"/>
      <point x="663" y="833" type="line"/>
      <point x="730" y="979" type="line"/>
      <point x="731" y="67" type="line"/>
      <point x="628" y="35" type="line"/>
      <point x="628" y="0" type="line"/>
      <point x="1171" y="0" type="line"/>
      <point x="1172" y="35" type="line"/>
      <point x="1084" y="67" type="line"/>
      <point x="1084" y="1225" type="line"/>
      <point x="1173" y="1257" type="line"/>
      <point x="1173" y="1292" type="line"/>
      <point x="627" y="1292" type="line"/>
      <point x="627" y="1257" type="line"/>
      <point x="731" y="1225" type="line"/>
      <point x="731" y="1100" type="line"/>
      <point x="546" y="550" type="line"/>
      <point x="433" y="335" type="line"/>
      <point x="433" y="1225" type="line"/>
      <point x="547" y="1257" type="line"/>
      <point x="547" y="1292" type="line"/>
    </contour>
  </outline>
</glyph>
<glyph name="iu-cy.sc" format="1">
  <advance width="1778"/>
  <outline>
    <contour>
      <point x="571" y="1444" type="move" name="top"/>
    </contour>
    <contour>
      <point x="606" y="710" type="curve"/>
      <point x="419" y="710" type="line"/>
      <point x="414" y="1172" type="line"/>
      <point x="554" y="1192" type="line"/>
      <point x="550" y="1292" type="line"/>
      <point x="-48" y="1292" type="line"/>
      <point x="-42" y="1192" type="line"/>
      <point x="78" y="1172" type="line"/>
      <point x="88" y="122" type="line"/>
      <point x="-30" y="96" type="line"/>
      <point x="-28" y="0" type="line"/>
      <point x="580" y="0" type="line"/>
      <point x="570" y="96" type="line"/>
      <point x="424" y="122" type="line"/>
      <point x="419" y="582" type="line"/>
      <point x="613" y="582" type="line"/>
      <point x="614" y="576"/>
      <point x="614" y="564"/>
      <point x="614" y="556" type="curve" smooth="yes"/>
      <point x="653" y="226"/>
      <point x="818" y="-18"/>
      <point x="1174" y="-18" type="curve" smooth="yes"/>
      <point x="1667" y="-18"/>
      <point x="1780" y="376"/>
      <point x="1737" y="744" type="curve" smooth="yes"/>
      <point x="1702" y="1046"/>
      <point x="1543" y="1310"/>
      <point x="1178" y="1310" type="curve" smooth="yes"/>
      <point x="775" y="1310"/>
      <point x="617" y="1026"/>
    </contour>
    <contour>
      <point x="1187" y="94" type="curve" smooth="yes"/>
      <point x="1088" y="94"/>
      <point x="1017" y="250"/>
      <point x="978" y="570" type="curve" smooth="yes"/>
      <point x="941" y="876"/>
      <point x="987" y="1198"/>
      <point x="1172" y="1198" type="curve" smooth="yes"/>
      <point x="1271" y="1198"/>
      <point x="1336" y="1048"/>
      <point x="1377" y="724" type="curve" smooth="yes"/>
      <point x="1418" y="378"/>
      <point x="1381" y="94"/>
    </contour>
  </outline>
</glyph>
<glyph name="izhitsa-cy.sc" format="1">
  <advance width="1011"/>
  <outline>
    <contour>
      <point x="539" y="-144" type="move" name="btm"/>
    </contour>
    <contour>
      <point x="310" y="1444" type="move" name="top"/>
    </contour>
    <contour>
      <point x="586" y="1002" type="curve" smooth="yes"/>
      <point x="506" y="339" type="line"/>
      <point x="481" y="143" type="line"/>
      <point x="431" y="345" type="line"/>
      <point x="247" y="1225" type="line"/>
      <point x="348" y="1257" type="line"/>
      <point x="346" y="1292" type="line"/>
      <point x="-216" y="1292" type="line"/>
      <point x="-216" y="1257" type="line"/>
      <point x="-124" y="1225" type="line"/>
      <point x="190" y="-8" type="line"/>
      <point x="503" y="-8" type="line"/>
      <point x="710" y="886" type="line" smooth="yes"/>
      <point x="733" y="1001"/>
      <point x="763" y="1111"/>
      <point x="851" y="1111" type="curve" smooth="yes"/>
      <point x="869" y="1111"/>
      <point x="878" y="1108"/>
      <point x="885" y="1101" type="curve"/>
      <point x="876" y="1290" type="line"/>
      <point x="851" y="1299"/>
      <point x="832" y="1306"/>
      <point x="791" y="1306" type="curve" smooth="yes"/>
      <point x="638" y="1306"/>
      <point x="606" y="1179"/>
    </contour>
  </outline>
</glyph>
<glyph name="ka-cy.sc" format="1">
  <advance width="1065"/>
  <outline>
    <contour>
      <point x="503" y="1292" type="move" name="top"/>
    </contour>
    <contour>
      <point x="518" y="614" type="line"/>
      <point x="905" y="1220" type="line"/>
      <point x="1040" y="1254" type="line"/>
      <point x="1038" y="1292" type="line"/>
      <point x="684" y="1292" type="line"/>
      <point x="686" y="1254" type="line"/>
      <point x="794" y="1220" type="line"/>
      <point x="509" y="718" type="line"/>
      <point x="388" y="718" type="line"/>
      <point x="389" y="1225" type="line"/>
      <point x="502" y="1257" type="line"/>
      <point x="502" y="1292" type="line"/>
      <point x="-54" y="1292" type="line"/>
      <point x="-55" y="1257" type="line"/>
      <point x="36" y="1225" type="line"/>
      <point x="36" y="67" type="line"/>
      <point x="-54" y="35" type="line"/>
      <point x="-54" y="0" type="line"/>
      <point x="491" y="0" type="line"/>
      <point x="492" y="35" type="line"/>
      <point x="389" y="67" type="line"/>
      <point x="389" y="646" type="line"/>
      <point x="409" y="646" type="line" smooth="yes"/>
      <point x="522" y="646"/>
      <point x="625" y="0"/>
      <point x="713" y="0" type="curve" smooth="yes"/>
      <point x="1130" y="0" type="line"/>
      <point x="1131" y="35" type="line"/>
      <point x="1062" y="57" type="line" smooth="yes"/>
      <point x="824" y="368"/>
      <point x="839" y="770"/>
      <point x="484" y="713" type="curve"/>
    </contour>
  </outline>
</glyph>
<glyph name="kabashkir-cy.sc" format="1">
  <advance width="1351"/>
  <outline>
    <contour>
      <point x="809" y="-144" type="move" name="btm"/>
    </contour>
    <contour>
      <point x="587" y="1444" type="move" name="top"/>
    </contour>
    <contour>
      <point x="878" y="716" type="curve"/>
      <point x="1191" y="1220" type="line"/>
      <point x="1326" y="1254" type="line"/>
      <point x="1324" y="1292" type="line"/>
      <point x="970" y="1292" type="line"/>
      <point x="972" y="1254" type="line"/>
      <point x="1080" y="1220" type="line"/>
      <point x="795" y="718" type="line"/>
      <point x="674" y="718" type="line"/>
      <point x="676" y="1225" type="line"/>
      <point x="780" y="1257" type="line"/>
      <point x="780" y="1292" type="line"/>
      <point x="-36" y="1292" type="line"/>
      <point x="-42" y="893" type="line"/>
      <point x="123" y="893" type="line"/>
      <point x="227" y="1234" type="line"/>
      <point x="322" y="1243" type="line"/>
      <point x="322" y="67" type="line"/>
      <point x="232" y="35" type="line"/>
      <point x="232" y="0" type="line"/>
      <point x="777" y="0" type="line"/>
      <point x="778" y="35" type="line"/>
      <point x="675" y="67" type="line"/>
      <point x="675" y="646" type="line"/>
      <point x="695" y="646" type="line" smooth="yes"/>
      <point x="808" y="646"/>
      <point x="911" y="0"/>
      <point x="1000" y="0" type="curve" smooth="yes"/>
      <point x="1416" y="0" type="line"/>
      <point x="1417" y="35" type="line"/>
      <point x="1348" y="57" type="line" smooth="yes"/>
      <point x="1137" y="334"/>
      <point x="1129" y="684"/>
    </contour>
  </outline>
</glyph>
<glyph name="kadescender-cy.sc" format="1">
  <advance width="1083"/>
  <outline>
    <contour>
      <point x="-76" y="0" type="line"/>
      <point x="469" y="0" type="line"/>
      <point x="469" y="35" type="line"/>
      <point x="367" y="67" type="line"/>
      <point x="368" y="646" type="line"/>
      <point x="388" y="646" type="line" smooth="yes"/>
      <point x="500" y="646"/>
      <point x="603" y="0"/>
      <point x="692" y="0" type="curve" smooth="yes"/>
      <point x="897" y="0" type="line"/>
      <point x="912" y="-81"/>
      <point x="926" y="-270"/>
      <point x="929" y="-370" type="curve"/>
      <point x="1061" y="-370" type="line"/>
      <point x="1088" y="-257"/>
      <point x="1128" y="-53"/>
      <point x="1135" y="69" type="curve"/>
      <point x="1049" y="69" type="line"/>
      <point x="858" y="237"/>
      <point x="843" y="800"/>
      <point x="450" y="709" type="curve"/>
      <point x="497" y="614" type="line"/>
      <point x="883" y="1220" type="line"/>
      <point x="1017" y="1254" type="line"/>
      <point x="1015" y="1292" type="line"/>
      <point x="662" y="1292" type="line"/>
      <point x="663" y="1254" type="line"/>
      <point x="773" y="1220" type="line"/>
      <point x="487" y="718" type="line"/>
      <point x="366" y="718" type="line"/>
      <point x="366" y="1225" type="line"/>
      <point x="480" y="1257" type="line"/>
      <point x="479" y="1292" type="line"/>
      <point x="-77" y="1292" type="line"/>
      <point x="-77" y="1257" type="line"/>
      <point x="13" y="1225" type="line"/>
      <point x="14" y="67" type="line"/>
      <point x="-77" y="35" type="line"/>
    </contour>
  </outline>
</glyph>
<glyph name="kahook-cy.sc" format="1">
  <advance width="1019"/>
  <outline>
    <contour>
      <point x="554" y="-144" type="move" name="btm"/>
    </contour>
    <contour>
      <point x="335" y="1444" type="move" name="top"/>
    </contour>
    <contour>
      <point x="370" y="658" type="curve"/>
      <point x="370" y="1225" type="line"/>
      <point x="476" y="1257" type="line"/>
      <point x="475" y="1292" type="line"/>
      <point x="-73" y="1292" type="line"/>
      <point x="-73" y="1257" type="line"/>
      <point x="17" y="1225" type="line"/>
      <point x="18" y="67" type="line"/>
      <point x="-73" y="35" type="line"/>
      <point x="-72" y="0" type="line"/>
      <point x="460" y="0" type="line"/>
      <point x="460" y="35" type="line"/>
      <point x="371" y="67" type="line"/>
      <point x="370" y="584" type="line"/>
      <point x="408" y="617"/>
      <point x="449" y="638"/>
      <point x="500" y="638" type="curve" smooth="yes"/>
      <point x="600" y="638"/>
      <point x="621" y="512"/>
      <point x="635" y="377" type="curve" smooth="yes"/>
      <point x="672" y="91"/>
      <point x="627" y="-243"/>
      <point x="381" y="-243" type="curve" smooth="yes"/>
      <point x="371" y="-243"/>
      <point x="359" y="-242"/>
      <point x="348" y="-239" type="curve"/>
      <point x="350" y="-306" type="line"/>
      <point x="364" y="-310"/>
      <point x="389" y="-312"/>
      <point x="412" y="-312" type="curve" smooth="yes"/>
      <point x="769" y="-312"/>
      <point x="1021" y="-31"/>
      <point x="973" y="373" type="curve" smooth="yes"/>
      <point x="941" y="645"/>
      <point x="812" y="753"/>
      <point x="585" y="738" type="curve"/>
      <point x="886" y="1220" type="line"/>
      <point x="1019" y="1254" type="line"/>
      <point x="1018" y="1292" type="line"/>
      <point x="664" y="1292" type="line"/>
      <point x="666" y="1254" type="line"/>
      <point x="775" y="1220" type="line"/>
      <point x="488" y="720" type="line"/>
      <point x="444" y="706"/>
      <point x="405" y="685"/>
    </contour>
  </outline>
</glyph>
<glyph name="kastroke-cy.sc" format="1">
  <advance width="1036"/>
  <outline>
    <contour>
      <point x="608" y="-144" type="move" name="btm"/>
    </contour>
    <contour>
      <point x="389" y="1444" type="move" name="top"/>
    </contour>
    <contour>
      <point x="599" y="716" type="curve"/>
      <point x="911" y="1220" type="line"/>
      <point x="1046" y="1254" type="line"/>
      <point x="1044" y="1292" type="line"/>
      <point x="691" y="1292" type="line"/>
      <point x="692" y="1254" type="line"/>
      <point x="801" y="1220" type="line"/>
      <point x="515" y="718" type="line"/>
      <point x="394" y="718" type="line"/>
      <point x="394" y="944" type="line"/>
      <point x="546" y="944" type="line"/>
      <point x="547" y="1002" type="line"/>
      <point x="394" y="1002" type="line"/>
      <point x="395" y="1225" type="line"/>
      <point x="508" y="1257" type="line"/>
      <point x="508" y="1292" type="line"/>
      <point x="-48" y="1292" type="line"/>
      <point x="-49" y="1257" type="line"/>
      <point x="42" y="1225" type="line"/>
      <point x="41" y="1002" type="line"/>
      <point x="-43" y="1002" type="line"/>
      <point x="-43" y="944" type="line"/>
      <point x="41" y="944" type="line"/>
      <point x="42" y="67" type="line"/>
      <point x="-48" y="35" type="line"/>
      <point x="-47" y="0" type="line"/>
      <point x="498" y="0" type="line"/>
      <point x="498" y="35" type="line"/>
      <point x="395" y="67" type="line"/>
      <point x="396" y="646" type="line"/>
      <point x="416" y="646" type="line" smooth="yes"/>
      <point x="529" y="646"/>
      <point x="631" y="0"/>
      <point x="720" y="0" type="curve" smooth="yes"/>
      <point x="1137" y="0" type="line"/>
      <point x="1137" y="35" type="line"/>
      <point x="1068" y="57" type="line" smooth="yes"/>
      <point x="858" y="334"/>
      <point x="850" y="684"/>
    </contour>
  </outline>
</glyph>
<glyph name="kaverticalstroke-cy.sc" format="1">
  <advance width="1251"/>
  <outline>
    <contour>
      <point x="665" y="716" type="curve"/>
      <point x="977" y="1220" type="line"/>
      <point x="1112" y="1254" type="line"/>
      <point x="1110" y="1292" type="line"/>
      <point x="757" y="1292" type="line"/>
      <point x="758" y="1254" type="line"/>
      <point x="867" y="1220" type="line"/>
      <point x="581" y="718" type="line"/>
      <point x="511" y="718" type="line"/>
      <point x="511" y="966" type="line"/>
      <point x="461" y="966" type="line"/>
      <point x="462" y="718" type="line"/>
      <point x="388" y="718" type="line"/>
      <point x="389" y="1225" type="line"/>
      <point x="502" y="1257" type="line"/>
      <point x="502" y="1292" type="line"/>
      <point x="-54" y="1292" type="line"/>
      <point x="-55" y="1257" type="line"/>
      <point x="36" y="1225" type="line"/>
      <point x="36" y="67" type="line"/>
      <point x="-54" y="35" type="line"/>
      <point x="-54" y="0" type="line"/>
      <point x="491" y="0" type="line"/>
      <point x="492" y="35" type="line"/>
      <point x="389" y="67" type="line"/>
      <point x="389" y="646" type="line"/>
      <point x="461" y="646" type="line"/>
      <point x="462" y="373" type="line"/>
      <point x="511" y="373" type="line"/>
      <point x="511" y="646" type="line"/>
      <point x="524" y="646" type="line"/>
      <point x="592" y="590"/>
      <point x="707" y="0"/>
      <point x="786" y="0" type="curve" smooth="yes"/>
      <point x="1202" y="0" type="line"/>
      <point x="1203" y="35" type="line"/>
      <point x="1134" y="57" type="line" smooth="yes"/>
      <point x="924" y="334"/>
      <point x="916" y="684"/>
    </contour>
  </outline>
</glyph>
<glyph name="komide-cy.sc" format="1">
  <advance width="1140"/>
  <outline>
    <contour>
      <point x="300" y="1444" type="move" name="top"/>
    </contour>
    <contour>
      <point x="835" y="0" type="curve" smooth="yes"/>
      <point x="1061" y="0" type="line"/>
      <point x="1061" y="35" type="line"/>
      <point x="976" y="67" type="line"/>
      <point x="975" y="1225" type="line"/>
      <point x="1067" y="1257" type="line"/>
      <point x="1066" y="1292" type="line"/>
      <point x="519" y="1292" type="line"/>
      <point x="519" y="1257" type="line"/>
      <point x="621" y="1225" type="line"/>
      <point x="620" y="766" type="line"/>
      <point x="582" y="777"/>
      <point x="546" y="782"/>
      <point x="506" y="782" type="curve" smooth="yes"/>
      <point x="237" y="782"/>
      <point x="-3" y="659"/>
      <point x="34" y="339" type="curve" smooth="yes"/>
      <point x="66" y="67"/>
      <point x="268" y="-18"/>
      <point x="504" y="-18" type="curve" smooth="yes"/>
      <point x="608" y="-18"/>
      <point x="706" y="0"/>
    </contour>
    <contour>
      <point x="620" y="708" type="curve"/>
      <point x="621" y="49" type="line"/>
      <point x="604" y="43"/>
      <point x="587" y="40"/>
      <point x="574" y="40" type="curve" smooth="yes"/>
      <point x="461" y="40"/>
      <point x="427" y="151"/>
      <point x="412" y="297" type="curve" smooth="yes"/>
      <point x="389" y="503"/>
      <point x="384" y="726"/>
      <point x="545" y="726" type="curve" smooth="yes"/>
      <point x="580" y="726"/>
      <point x="604" y="719"/>
    </contour>
  </outline>
</glyph>
<glyph name="komidje-cy.sc" format="1">
  <advance width="1495"/>
  <outline>
    <contour>
      <point x="84" y="1444" type="move" name="top"/>
    </contour>
    <contour>
      <point x="1077" y="295" type="curve" smooth="yes"/>
      <point x="1077" y="129"/>
      <point x="1073" y="38"/>
      <point x="1025" y="38" type="curve" smooth="yes"/>
      <point x="993" y="38"/>
      <point x="976" y="123"/>
      <point x="977" y="260" type="curve" smooth="yes"/>
      <point x="976" y="1225" type="line"/>
      <point x="1067" y="1257" type="line"/>
      <point x="1066" y="1292" type="line"/>
      <point x="519" y="1292" type="line"/>
      <point x="519" y="1257" type="line"/>
      <point x="621" y="1225" type="line"/>
      <point x="620" y="766" type="line"/>
      <point x="582" y="777"/>
      <point x="548" y="782"/>
      <point x="508" y="782" type="curve" smooth="yes"/>
      <point x="263" y="782"/>
      <point x="30" y="644"/>
      <point x="30" y="374" type="curve" smooth="yes"/>
      <point x="30" y="73"/>
      <point x="222" y="-18"/>
      <point x="508" y="-18" type="curve" smooth="yes"/>
      <point x="621" y="-18"/>
      <point x="703" y="2"/>
      <point x="892" y="2" type="curve"/>
      <point x="932" y="-13"/>
      <point x="995" y="-20"/>
      <point x="1026" y="-20" type="curve" smooth="yes"/>
      <point x="1261" y="-20"/>
      <point x="1388" y="104"/>
      <point x="1375" y="366" type="curve" smooth="yes"/>
      <point x="1375" y="366"/>
      <point x="1376" y="588"/>
      <point x="1377" y="588" type="curve"/>
      <point x="1468" y="620" type="line"/>
      <point x="1467" y="655" type="line"/>
      <point x="976" y="655" type="line"/>
      <point x="976" y="620" type="line"/>
      <point x="1078" y="588" type="line"/>
      <point x="1077" y="588"/>
      <point x="1077" y="295"/>
    </contour>
    <contour>
      <point x="574" y="40" type="curve" smooth="yes"/>
      <point x="440" y="40"/>
      <point x="401" y="180"/>
      <point x="401" y="380" type="curve" smooth="yes"/>
      <point x="401" y="557"/>
      <point x="421" y="726"/>
      <point x="546" y="726" type="curve" smooth="yes"/>
      <point x="580" y="726"/>
      <point x="604" y="719"/>
      <point x="620" y="708" type="curve"/>
      <point x="620" y="49" type="line"/>
      <point x="604" y="43"/>
      <point x="587" y="40"/>
    </contour>
  </outline>
</glyph>
<glyph name="komidzje-cy.sc" format="1">
  <advance width="673"/>
  <outline>
    <contour>
      <point x="356" y="-144" type="move" name="btm"/>
    </contour>
    <contour>
      <point x="157" y="1444" type="move" name="top"/>
    </contour>
    <contour>
      <point x="327" y="0" type="curve" smooth="yes"/>
      <point x="479" y="0" type="line"/>
      <point x="503" y="-87"/>
      <point x="512" y="-266"/>
      <point x="518" y="-331" type="curve"/>
      <point x="678" y="-331" type="line"/>
      <point x="696" y="-262"/>
      <point x="733" y="-74"/>
      <point x="739" y="126" type="curve"/>
      <point x="626" y="121" type="line" smooth="yes"/>
      <point x="578" y="158"/>
      <point x="566" y="204"/>
      <point x="500" y="312" type="curve" smooth="yes"/>
      <point x="477" y="374"/>
      <point x="392" y="546"/>
      <point x="343" y="600" type="curve"/>
      <point x="515" y="662"/>
      <point x="575" y="801"/>
      <point x="556" y="970" type="curve" smooth="yes"/>
      <point x="529" y="1212"/>
      <point x="388" y="1306"/>
      <point x="74" y="1306" type="curve" smooth="yes"/>
      <point x="9" y="1306"/>
      <point x="-34" y="1304"/>
      <point x="-80" y="1298" type="curve"/>
      <point x="-76" y="1177" type="line"/>
      <point x="-55" y="1187"/>
      <point x="-33" y="1191"/>
      <point x="14" y="1191" type="curve" smooth="yes"/>
      <point x="130" y="1191"/>
      <point x="201" y="1115"/>
      <point x="214" y="981" type="curve" smooth="yes"/>
      <point x="250" y="702"/>
      <point x="108" y="683"/>
      <point x="33" y="683" type="curve" smooth="yes"/>
      <point x="-38" y="683"/>
      <point x="-50" y="683"/>
      <point x="-57" y="687" type="curve"/>
      <point x="-56" y="558" type="line"/>
      <point x="-25" y="558"/>
      <point x="30" y="560"/>
      <point x="47" y="558" type="curve"/>
      <point x="87" y="514"/>
      <point x="284" y="0"/>
    </contour>
  </outline>
</glyph>
<glyph name="komilje-cy.sc" format="1">
  <advance width="1536"/>
  <outline>
    <contour>
      <point x="639" y="-144" type="move" name="btm"/>
    </contour>
    <contour>
      <point x="498" y="1444" type="move" name="top"/>
    </contour>
    <contour>
      <point x="1098" y="442" type="curve" smooth="yes"/>
      <point x="1096" y="1225" type="line"/>
      <point x="1187" y="1257" type="line"/>
      <point x="1185" y="1292" type="line"/>
      <point x="333" y="1292" type="line"/>
      <point x="333" y="1257" type="line"/>
      <point x="444" y="1222" type="line"/>
      <point x="442" y="1081" type="line" smooth="yes"/>
      <point x="431" y="674"/>
      <point x="395" y="429"/>
      <point x="334" y="315" type="curve" smooth="yes"/>
      <point x="308" y="259"/>
      <point x="266" y="226"/>
      <point x="204" y="226" type="curve" smooth="yes"/>
      <point x="160" y="226"/>
      <point x="132" y="231"/>
      <point x="115" y="237" type="curve"/>
      <point x="114" y="1" type="line"/>
      <point x="136" y="-13"/>
      <point x="178" y="-26"/>
      <point x="230" y="-26" type="curve" smooth="yes"/>
      <point x="350" y="-26"/>
      <point x="420" y="54"/>
      <point x="462" y="218" type="curve" smooth="yes"/>
      <point x="498" y="388"/>
      <point x="510" y="665"/>
      <point x="514" y="1058" type="curve" smooth="yes"/>
      <point x="515" y="1221" type="line"/>
      <point x="743" y="1221" type="line"/>
      <point x="745" y="341" type="line" smooth="yes"/>
      <point x="745" y="105"/>
      <point x="877" y="-20"/>
      <point x="1129" y="-20" type="curve" smooth="yes"/>
      <point x="1354" y="-20"/>
      <point x="1508" y="104"/>
      <point x="1505" y="366" type="curve" smooth="yes"/>
      <point x="1499" y="588" type="line"/>
      <point x="1200" y="588" type="line"/>
      <point x="1205" y="345" type="line" smooth="yes"/>
      <point x="1209" y="139"/>
      <point x="1202" y="38"/>
      <point x="1146" y="38" type="curve" smooth="yes"/>
      <point x="1079" y="38"/>
      <point x="1097" y="236"/>
    </contour>
  </outline>
</glyph>
<glyph name="kominje-cy.sc" format="1">
  <advance width="1508"/>
  <outline>
    <contour>
      <point x="1070" y="442" type="curve" smooth="yes"/>
      <point x="1069" y="1225" type="line"/>
      <point x="1159" y="1257" type="line"/>
      <point x="1158" y="1292" type="line"/>
      <point x="613" y="1292" type="line"/>
      <point x="613" y="1257" type="line"/>
      <point x="716" y="1225" type="line"/>
      <point x="716" y="686" type="line"/>
      <point x="432" y="686" type="line"/>
      <point x="431" y="1225" type="line"/>
      <point x="546" y="1257" type="line"/>
      <point x="545" y="1292" type="line"/>
      <point x="-11" y="1292" type="line"/>
      <point x="-11" y="1257" type="line"/>
      <point x="78" y="1225" type="line"/>
      <point x="79" y="67" type="line"/>
      <point x="-11" y="35" type="line"/>
      <point x="-10" y="0" type="line"/>
      <point x="533" y="0" type="line"/>
      <point x="533" y="35" type="line"/>
      <point x="432" y="67" type="line"/>
      <point x="432" y="621" type="line"/>
      <point x="716" y="621" type="line"/>
      <point x="716" y="341" type="line" smooth="yes"/>
      <point x="717" y="105"/>
      <point x="849" y="-20"/>
      <point x="1101" y="-20" type="curve" smooth="yes"/>
      <point x="1327" y="-20"/>
      <point x="1481" y="104"/>
      <point x="1476" y="366" type="curve" smooth="yes"/>
      <point x="1472" y="588" type="line"/>
      <point x="1172" y="588" type="line"/>
      <point x="1177" y="345" type="line" smooth="yes"/>
      <point x="1181" y="139"/>
      <point x="1173" y="38"/>
      <point x="1117" y="38" type="curve" smooth="yes"/>
      <point x="1052" y="38"/>
      <point x="1070" y="236"/>
    </contour>
  </outline>
</glyph>
<glyph name="komisje-cy.sc" format="1">
  <advance width="992"/>
  <outline>
    <contour>
      <point x="992" y="639" type="curve"/>
      <point x="571" y="639" type="line"/>
      <point x="572" y="604" type="line"/>
      <point x="677" y="565" type="line"/>
      <point x="679" y="485" type="line" smooth="yes"/>
      <point x="688" y="155"/>
      <point x="679" y="40"/>
      <point x="581" y="40" type="curve" smooth="yes"/>
      <point x="449" y="40"/>
      <point x="415" y="269"/>
      <point x="397" y="451" type="curve" smooth="yes"/>
      <point x="346" y="861"/>
      <point x="368" y="1251"/>
      <point x="551" y="1251" type="curve" smooth="yes"/>
      <point x="555" y="1251"/>
      <point x="577" y="1242"/>
      <point x="609" y="1226" type="curve"/>
      <point x="685" y="865" type="line"/>
      <point x="900" y="865" type="line"/>
      <point x="901" y="1261" type="line"/>
      <point x="778" y="1261"/>
      <point x="762" y="1310"/>
      <point x="556" y="1310" type="curve" smooth="yes"/>
      <point x="184" y="1310"/>
      <point x="-37" y="1000"/>
      <point x="15" y="560" type="curve" smooth="yes"/>
      <point x="57" y="200"/>
      <point x="236" y="-19"/>
      <point x="550" y="-19" type="curve" smooth="yes"/>
      <point x="803" y="-19"/>
      <point x="990" y="130"/>
      <point x="994" y="430" type="curve" smooth="yes"/>
      <point x="995" y="494"/>
      <point x="995" y="572"/>
    </contour>
  </outline>
</glyph>
<glyph name="komitje-cy.sc" format="1">
  <advance width="1187"/>
  <outline>
    <contour>
      <point x="558" y="-144" type="move" name="btm"/>
    </contour>
    <contour>
      <point x="365" y="1444" type="move" name="top"/>
    </contour>
    <contour>
      <point x="731" y="442" type="curve" smooth="yes"/>
      <point x="731" y="1242" type="line"/>
      <point x="826" y="1233" type="line"/>
      <point x="944" y="796" type="line"/>
      <point x="1089" y="796" type="line"/>
      <point x="1080" y="1292" type="line"/>
      <point x="14" y="1292" type="line"/>
      <point x="-8" y="796" type="line"/>
      <point x="157" y="796" type="line"/>
      <point x="280" y="1233" type="line"/>
      <point x="378" y="1242" type="line"/>
      <point x="379" y="351" type="line" smooth="yes"/>
      <point x="379" y="87"/>
      <point x="557" y="-20"/>
      <point x="785" y="-20" type="curve" smooth="yes"/>
      <point x="1025" y="-20"/>
      <point x="1215" y="88"/>
      <point x="1209" y="376" type="curve" smooth="yes"/>
      <point x="1206" y="537" type="line"/>
      <point x="879" y="537" type="line"/>
      <point x="882" y="355" type="line" smooth="yes"/>
      <point x="886" y="129"/>
      <point x="850" y="38"/>
      <point x="801" y="38" type="curve" smooth="yes"/>
      <point x="735" y="38"/>
      <point x="731" y="241"/>
    </contour>
  </outline>
</glyph>
<glyph name="komizje-cy.sc" format="1">
  <advance width="1117"/>
  <outline>
    <contour>
      <point x="849" y="552" type="line"/>
      <point x="854" y="347" type="line" smooth="yes"/>
      <point x="859" y="141"/>
      <point x="844" y="40"/>
      <point x="788" y="40" type="curve" smooth="yes"/>
      <point x="722" y="40"/>
      <point x="648" y="189"/>
      <point x="591" y="317" type="curve" smooth="yes"/>
      <point x="499" y="486"/>
      <point x="443" y="555"/>
      <point x="410" y="596" type="curve"/>
      <point x="587" y="663"/>
      <point x="673" y="776"/>
      <point x="648" y="977" type="curve" smooth="yes"/>
      <point x="619" y="1237"/>
      <point x="395" y="1306"/>
      <point x="173" y="1306" type="curve" smooth="yes"/>
      <point x="102" y="1306"/>
      <point x="49" y="1301"/>
      <point x="13" y="1292" type="curve"/>
      <point x="4" y="1222" type="line"/>
      <point x="24" y="1234"/>
      <point x="58" y="1240"/>
      <point x="102" y="1240" type="curve" smooth="yes"/>
      <point x="244" y="1240"/>
      <point x="303" y="1151"/>
      <point x="322" y="978" type="curve" smooth="yes"/>
      <point x="342" y="800"/>
      <point x="300" y="665"/>
      <point x="155" y="665" type="curve" smooth="yes"/>
      <point x="121" y="665"/>
      <point x="51" y="667"/>
      <point x="36" y="669" type="curve"/>
      <point x="27" y="592" type="line"/>
      <point x="66" y="592"/>
      <point x="84" y="592"/>
      <point x="166" y="594" type="curve"/>
      <point x="193" y="547"/>
      <point x="294" y="337"/>
      <point x="382" y="178" type="curve" smooth="yes"/>
      <point x="452" y="52"/>
      <point x="547" y="-18"/>
      <point x="768" y="-18" type="curve" smooth="yes"/>
      <point x="994" y="-18"/>
      <point x="1160" y="106"/>
      <point x="1153" y="368" type="curve" smooth="yes"/>
      <point x="1149" y="552" type="line"/>
    </contour>
  </outline>
</glyph>
<glyph name="lje-cy.sc" format="1">
  <advance width="1646"/>
  <outline>
    <contour>
      <point x="542" y="-144" type="move" name="btm"/>
    </contour>
    <contour>
      <point x="546" y="1444" type="move" name="top"/>
    </contour>
    <contour>
      <point x="1064" y="754" type="curve"/>
      <point x="1065" y="1225" type="line"/>
      <point x="1157" y="1257" type="line"/>
      <point x="1156" y="1292" type="line"/>
      <point x="303" y="1292" type="line"/>
      <point x="303" y="1257" type="line"/>
      <point x="413" y="1222" type="line"/>
      <point x="411" y="1081" type="line" smooth="yes"/>
      <point x="400" y="674"/>
      <point x="364" y="429"/>
      <point x="303" y="315" type="curve" smooth="yes"/>
      <point x="277" y="259"/>
      <point x="235" y="226"/>
      <point x="173" y="226" type="curve" smooth="yes"/>
      <point x="129" y="226"/>
      <point x="101" y="231"/>
      <point x="84" y="237" type="curve"/>
      <point x="83" y="1" type="line"/>
      <point x="106" y="-13"/>
      <point x="147" y="-26"/>
      <point x="199" y="-26" type="curve" smooth="yes"/>
      <point x="319" y="-26"/>
      <point x="389" y="54"/>
      <point x="431" y="218" type="curve" smooth="yes"/>
      <point x="468" y="388"/>
      <point x="479" y="665"/>
      <point x="483" y="1058" type="curve" smooth="yes"/>
      <point x="484" y="1221" type="line"/>
      <point x="713" y="1221" type="line"/>
      <point x="713" y="67" type="line"/>
      <point x="625" y="35" type="line"/>
      <point x="626" y="0" type="line"/>
      <point x="807" y="0" type="line" smooth="yes"/>
      <point x="925" y="0"/>
      <point x="1052" y="-18"/>
      <point x="1169" y="-18" type="curve" smooth="yes"/>
      <point x="1442" y="-18"/>
      <point x="1693" y="93"/>
      <point x="1655" y="413" type="curve" smooth="yes"/>
      <point x="1624" y="685"/>
      <point x="1423" y="772"/>
      <point x="1188" y="772" type="curve" smooth="yes"/>
      <point x="1144" y="772"/>
      <point x="1098" y="764"/>
    </contour>
    <contour>
      <point x="1066" y="63" type="curve"/>
      <point x="1065" y="691" type="line"/>
      <point x="1080" y="697"/>
      <point x="1107" y="701"/>
      <point x="1118" y="701" type="curve" smooth="yes"/>
      <point x="1243" y="701"/>
      <point x="1269" y="589"/>
      <point x="1286" y="427" type="curve" smooth="yes"/>
      <point x="1307" y="242"/>
      <point x="1293" y="40"/>
      <point x="1152" y="40" type="curve" smooth="yes"/>
      <point x="1101" y="40"/>
      <point x="1077" y="53"/>
    </contour>
  </outline>
</glyph>
<glyph name="nje-cy.sc" format="1">
  <advance width="1624"/>
  <outline>
    <contour>
      <point x="484" y="-144" type="move" name="btm"/>
    </contour>
    <contour>
      <point x="279" y="1444" type="move" name="top"/>
    </contour>
    <contour>
      <point x="1024" y="754" type="curve"/>
      <point x="1023" y="1225" type="line"/>
      <point x="1129" y="1257" type="line"/>
      <point x="1127" y="1292" type="line"/>
      <point x="568" y="1292" type="line"/>
      <point x="569" y="1257" type="line"/>
      <point x="671" y="1225" type="line"/>
      <point x="671" y="686" type="line"/>
      <point x="387" y="686" type="line"/>
      <point x="387" y="1225" type="line"/>
      <point x="502" y="1257" type="line"/>
      <point x="501" y="1292" type="line"/>
      <point x="-56" y="1292" type="line"/>
      <point x="-56" y="1257" type="line"/>
      <point x="34" y="1225" type="line"/>
      <point x="35" y="67" type="line"/>
      <point x="-56" y="35" type="line"/>
      <point x="-55" y="0" type="line"/>
      <point x="489" y="0" type="line"/>
      <point x="489" y="35" type="line"/>
      <point x="388" y="67" type="line"/>
      <point x="387" y="621" type="line"/>
      <point x="671" y="621" type="line"/>
      <point x="672" y="67" type="line"/>
      <point x="581" y="35" type="line"/>
      <point x="582" y="0" type="line"/>
      <point x="765" y="0" type="line" smooth="yes"/>
      <point x="883" y="0"/>
      <point x="1011" y="-18"/>
      <point x="1129" y="-18" type="curve" smooth="yes"/>
      <point x="1402" y="-18"/>
      <point x="1653" y="93"/>
      <point x="1615" y="413" type="curve" smooth="yes"/>
      <point x="1582" y="685"/>
      <point x="1382" y="772"/>
      <point x="1147" y="772" type="curve" smooth="yes"/>
      <point x="1103" y="772"/>
      <point x="1058" y="764"/>
    </contour>
    <contour>
      <point x="1025" y="63" type="curve"/>
      <point x="1025" y="691" type="line"/>
      <point x="1040" y="697"/>
      <point x="1065" y="701"/>
      <point x="1077" y="701" type="curve" smooth="yes"/>
      <point x="1201" y="701"/>
      <point x="1229" y="589"/>
      <point x="1246" y="427" type="curve" smooth="yes"/>
      <point x="1265" y="242"/>
      <point x="1252" y="40"/>
      <point x="1111" y="40" type="curve" smooth="yes"/>
      <point x="1060" y="40"/>
      <point x="1037" y="53"/>
    </contour>
  </outline>
</glyph>
<glyph name="pe-cy.sc" format="1">
  <advance width="1194"/>
  <outline>
    <contour>
      <point x="601" y="-144" type="move" name="btm"/>
    </contour>
    <contour>
      <point x="380" y="1444" type="move" name="top"/>
    </contour>
    <contour>
      <point x="-10" y="1292" type="line"/>
      <point x="-11" y="1257" type="line"/>
      <point x="80" y="1225" type="line"/>
      <point x="80" y="67" type="line"/>
      <point x="-10" y="35" type="line"/>
      <point x="-10" y="0" type="line"/>
      <point x="533" y="0" type="line"/>
      <point x="534" y="35" type="line"/>
      <point x="433" y="67" type="line"/>
      <point x="432" y="1221" type="line"/>
      <point x="675" y="1221" type="line"/>
      <point x="675" y="67" type="line"/>
      <point x="572" y="35" type="line"/>
      <point x="572" y="0" type="line"/>
      <point x="1115" y="0" type="line"/>
      <point x="1116" y="35" type="line"/>
      <point x="1028" y="67" type="line"/>
      <point x="1028" y="1225" type="line"/>
      <point x="1118" y="1257" type="line"/>
      <point x="1118" y="1292" type="line"/>
    </contour>
  </outline>
</glyph>
<glyph name="pedescender-cy.sc" format="1">
  <advance width="1207"/>
  <outline>
    <contour>
      <point x="534" y="-144" type="move" name="btm"/>
    </contour>
    <contour>
      <point x="312" y="1444" type="move" name="top"/>
    </contour>
    <contour>
      <point x="1183" y="69" type="curve"/>
      <point x="1017" y="70" type="line"/>
      <point x="676" y="69" type="line"/>
      <point x="681" y="0" type="line"/>
      <point x="944" y="0" type="line"/>
      <point x="959" y="-81"/>
      <point x="973" y="-270"/>
      <point x="977" y="-370" type="curve"/>
      <point x="1108" y="-370" type="line"/>
      <point x="1136" y="-257"/>
      <point x="1176" y="-53"/>
    </contour>
    <contour>
      <point x="-33" y="1292" type="line"/>
      <point x="-33" y="1257" type="line"/>
      <point x="57" y="1225" type="line"/>
      <point x="58" y="67" type="line"/>
      <point x="-33" y="35" type="line"/>
      <point x="-32" y="0" type="line"/>
      <point x="512" y="0" type="line"/>
      <point x="512" y="35" type="line"/>
      <point x="411" y="67" type="line"/>
      <point x="410" y="1221" type="line"/>
      <point x="654" y="1221" type="line"/>
      <point x="654" y="67" type="line"/>
      <point x="549" y="35" type="line"/>
      <point x="550" y="0" type="line"/>
      <point x="1094" y="0" type="line"/>
      <point x="1094" y="35" type="line"/>
      <point x="1006" y="67" type="line"/>
      <point x="1005" y="1225" type="line"/>
      <point x="1096" y="1257" type="line"/>
      <point x="1095" y="1292" type="line"/>
    </contour>
  </outline>
</glyph>
<glyph name="pemiddlehook-cy.sc" format="1">
  <advance width="1658"/>
  <outline>
    <contour>
      <point x="547" y="-144" type="move" name="btm"/>
    </contour>
    <contour>
      <point x="325" y="1444" type="move" name="top"/>
    </contour>
    <contour>
      <point x="1010" y="658" type="curve"/>
      <point x="1009" y="1225" type="line"/>
      <point x="1104" y="1257" type="line"/>
      <point x="1103" y="1292" type="line"/>
      <point x="-29" y="1292" type="line"/>
      <point x="-29" y="1257" type="line"/>
      <point x="61" y="1225" type="line"/>
      <point x="62" y="67" type="line"/>
      <point x="-29" y="35" type="line"/>
      <point x="-28" y="0" type="line"/>
      <point x="515" y="0" type="line"/>
      <point x="515" y="35" type="line"/>
      <point x="415" y="67" type="line"/>
      <point x="414" y="1221" type="line"/>
      <point x="657" y="1221" type="line"/>
      <point x="657" y="67" type="line"/>
      <point x="566" y="35" type="line"/>
      <point x="568" y="0" type="line"/>
      <point x="1156" y="0" type="line"/>
      <point x="1155" y="35" type="line"/>
      <point x="1010" y="67" type="line"/>
      <point x="1009" y="584" type="line"/>
      <point x="1049" y="617"/>
      <point x="1094" y="638"/>
      <point x="1141" y="638" type="curve" smooth="yes"/>
      <point x="1245" y="638"/>
      <point x="1272" y="512"/>
      <point x="1287" y="377" type="curve" smooth="yes"/>
      <point x="1324" y="91"/>
      <point x="1276" y="-243"/>
      <point x="1032" y="-243" type="curve" smooth="yes"/>
      <point x="1022" y="-243"/>
      <point x="1011" y="-242"/>
      <point x="1000" y="-239" type="curve"/>
      <point x="1001" y="-306" type="line"/>
      <point x="1015" y="-310"/>
      <point x="1040" y="-312"/>
      <point x="1063" y="-312" type="curve" smooth="yes"/>
      <point x="1425" y="-312"/>
      <point x="1674" y="-37"/>
      <point x="1625" y="373" type="curve" smooth="yes"/>
      <point x="1598" y="616"/>
      <point x="1484" y="740"/>
      <point x="1277" y="740" type="curve" smooth="yes"/>
      <point x="1183" y="740"/>
      <point x="1084" y="711"/>
    </contour>
  </outline>
</glyph>
<glyph name="reversedze-cy.sc" format="1">
  <advance width="951"/>
  <outline>
    <contour>
      <point x="521" y="625" type="curve"/>
      <point x="624" y="609" type="line"/>
      <point x="624" y="715" type="line"/>
      <point x="533" y="719" type="line"/>
      <point x="445" y="727"/>
      <point x="396" y="825"/>
      <point x="385" y="945" type="curve" smooth="yes"/>
      <point x="365" y="1119"/>
      <point x="369" y="1251"/>
      <point x="507" y="1251" type="curve" smooth="yes"/>
      <point x="564" y="1251"/>
      <point x="615" y="1228"/>
      <point x="622" y="1126" type="curve"/>
      <point x="662" y="909" type="line"/>
      <point x="859" y="908" type="line"/>
      <point x="870" y="1257" type="line"/>
      <point x="759" y="1259"/>
      <point x="641" y="1310"/>
      <point x="463" y="1310" type="curve" smooth="yes"/>
      <point x="233" y="1310"/>
      <point x="33" y="1244"/>
      <point x="65" y="975" type="curve" smooth="yes"/>
      <point x="82" y="818"/>
      <point x="188" y="725"/>
      <point x="423" y="686" type="curve"/>
      <point x="131" y="684"/>
      <point x="26" y="551"/>
      <point x="52" y="341" type="curve" smooth="yes"/>
      <point x="85" y="66"/>
      <point x="284" y="-18"/>
      <point x="525" y="-18" type="curve" smooth="yes"/>
      <point x="683" y="-18"/>
      <point x="841" y="43"/>
      <point x="902" y="79" type="curve"/>
      <point x="899" y="412" type="line"/>
      <point x="713" y="412" type="line"/>
      <point x="698" y="329"/>
      <point x="687" y="179"/>
      <point x="658" y="100" type="curve"/>
      <point x="631" y="67"/>
      <point x="595" y="41"/>
      <point x="556" y="41" type="curve" smooth="yes"/>
      <point x="454" y="41"/>
      <point x="413" y="168"/>
      <point x="400" y="302" type="curve" smooth="yes"/>
      <point x="381" y="476"/>
      <point x="385" y="625"/>
    </contour>
  </outline>
</glyph>
<glyph name="semisoftsign-cy.sc" format="1">
  <advance width="1029"/>
  <outline>
    <contour>
      <point x="349" y="1444" type="move" name="top"/>
    </contour>
    <contour>
      <point x="423" y="754" type="curve"/>
      <point x="423" y="942" type="line"/>
      <point x="640" y="942" type="line"/>
      <point x="639" y="1000" type="line"/>
      <point x="423" y="1000" type="line"/>
      <point x="422" y="1225" type="line"/>
      <point x="528" y="1257" type="line"/>
      <point x="526" y="1292" type="line"/>
      <point x="-20" y="1292" type="line"/>
      <point x="-20" y="1257" type="line"/>
      <point x="70" y="1225" type="line"/>
      <point x="70" y="1000" type="line"/>
      <point x="-42" y="1000" type="line"/>
      <point x="-43" y="942" type="line"/>
      <point x="70" y="942" type="line"/>
      <point x="71" y="67" type="line"/>
      <point x="-20" y="35" type="line"/>
      <point x="-19" y="0" type="line"/>
      <point x="164" y="0" type="line" smooth="yes"/>
      <point x="282" y="0"/>
      <point x="410" y="-18"/>
      <point x="528" y="-18" type="curve" smooth="yes"/>
      <point x="801" y="-18"/>
      <point x="1052" y="93"/>
      <point x="1014" y="413" type="curve" smooth="yes"/>
      <point x="981" y="685"/>
      <point x="781" y="772"/>
      <point x="546" y="772" type="curve" smooth="yes"/>
      <point x="502" y="772"/>
      <point x="457" y="764"/>
    </contour>
    <contour>
      <point x="425" y="63" type="curve"/>
      <point x="424" y="691" type="line"/>
      <point x="439" y="697"/>
      <point x="464" y="701"/>
      <point x="476" y="701" type="curve" smooth="yes"/>
      <point x="601" y="701"/>
      <point x="628" y="589"/>
      <point x="645" y="427" type="curve" smooth="yes"/>
      <point x="664" y="242"/>
      <point x="652" y="40"/>
      <point x="510" y="40" type="curve" smooth="yes"/>
      <point x="459" y="40"/>
      <point x="436" y="53"/>
    </contour>
  </outline>
</glyph>
<glyph name="sha-cy.sc" format="1">
  <advance width="1766"/>
  <outline>
    <contour>
      <point x="563" y="-144" type="move" name="btm"/>
    </contour>
    <contour>
      <point x="582" y="1444" type="move" name="top"/>
    </contour>
    <contour>
      <point x="1134" y="1292" type="line"/>
      <point x="1133" y="1257" type="line"/>
      <point x="1246" y="1225" type="line"/>
      <point x="1246" y="71" type="line"/>
      <point x="1015" y="71" type="line"/>
      <point x="1015" y="1225" type="line"/>
      <point x="1110" y="1257" type="line"/>
      <point x="1109" y="1292" type="line"/>
      <point x="550" y="1292" type="line"/>
      <point x="550" y="1257" type="line"/>
      <point x="663" y="1225" type="line"/>
      <point x="663" y="71" type="line"/>
      <point x="434" y="71" type="line"/>
      <point x="432" y="1225" type="line"/>
      <point x="527" y="1257" type="line"/>
      <point x="526" y="1292" type="line"/>
      <point x="-10" y="1292" type="line"/>
      <point x="-11" y="1257" type="line"/>
      <point x="80" y="1225" type="line"/>
      <point x="80" y="67" type="line"/>
      <point x="-10" y="35" type="line"/>
      <point x="-10" y="0" type="line"/>
      <point x="1686" y="0" type="line"/>
      <point x="1687" y="35" type="line"/>
      <point x="1599" y="67" type="line"/>
      <point x="1599" y="1225" type="line"/>
      <point x="1688" y="1257" type="line"/>
      <point x="1688" y="1292" type="line"/>
    </contour>
  </outline>
</glyph>
<glyph name="shcha-cy.sc" format="1">
  <advance width="1780"/>
  <outline>
    <contour>
      <point x="541" y="-144" type="move" name="btm"/>
    </contour>
    <contour>
      <point x="554" y="1444" type="move" name="top"/>
    </contour>
    <contour>
      <point x="1758" y="71" type="curve"/>
      <point x="1587" y="71" type="line"/>
      <point x="1586" y="1225" type="line"/>
      <point x="1677" y="1257" type="line"/>
      <point x="1675" y="1292" type="line"/>
      <point x="1121" y="1292" type="line"/>
      <point x="1121" y="1257" type="line"/>
      <point x="1233" y="1225" type="line"/>
      <point x="1233" y="71" type="line"/>
      <point x="1003" y="71" type="line"/>
      <point x="1003" y="1225" type="line"/>
      <point x="1098" y="1257" type="line"/>
      <point x="1097" y="1292" type="line"/>
      <point x="538" y="1292" type="line"/>
      <point x="538" y="1257" type="line"/>
      <point x="650" y="1225" type="line"/>
      <point x="650" y="71" type="line"/>
      <point x="420" y="71" type="line"/>
      <point x="420" y="1225" type="line"/>
      <point x="515" y="1257" type="line"/>
      <point x="514" y="1292" type="line"/>
      <point x="-23" y="1292" type="line"/>
      <point x="-23" y="1257" type="line"/>
      <point x="67" y="1225" type="line"/>
      <point x="68" y="67" type="line"/>
      <point x="-23" y="35" type="line"/>
      <point x="-22" y="0" type="line"/>
      <point x="1520" y="0" type="line"/>
      <point x="1535" y="-81"/>
      <point x="1549" y="-270"/>
      <point x="1553" y="-370" type="curve"/>
      <point x="1684" y="-370" type="line"/>
      <point x="1712" y="-257"/>
      <point x="1752" y="-51"/>
    </contour>
  </outline>
</glyph>
<glyph name="shha-cy.sc" format="1">
  <advance width="1142"/>
  <outline>
    <contour>
      <point x="266" y="1444" type="move" name="top"/>
    </contour>
    <contour>
      <point x="605" y="0" type="move" name="bottom"/>
    </contour>
    <contour>
      <point x="433" y="785" type="curve"/>
      <point x="433" y="1225" type="line"/>
      <point x="547" y="1257" type="line"/>
      <point x="547" y="1292" type="line"/>
      <point x="-10" y="1292" type="line"/>
      <point x="-11" y="1257" type="line"/>
      <point x="80" y="1225" type="line"/>
      <point x="80" y="67" type="line"/>
      <point x="-10" y="35" type="line"/>
      <point x="-10" y="0" type="line"/>
      <point x="517" y="0" type="line"/>
      <point x="518" y="35" type="line"/>
      <point x="433" y="67" type="line"/>
      <point x="432" y="719" type="line"/>
      <point x="467" y="740"/>
      <point x="507" y="752"/>
      <point x="541" y="752" type="curve" smooth="yes"/>
      <point x="711" y="752"/>
      <point x="701" y="561"/>
      <point x="700" y="351" type="curve" smooth="yes"/>
      <point x="700" y="67" type="line"/>
      <point x="613" y="35" type="line"/>
      <point x="613" y="0" type="line"/>
      <point x="1143" y="0" type="line"/>
      <point x="1144" y="35" type="line"/>
      <point x="1053" y="67" type="line"/>
      <point x="1054" y="437" type="line" smooth="yes"/>
      <point x="1054" y="727"/>
      <point x="894" y="831"/>
      <point x="648" y="831" type="curve" smooth="yes"/>
      <point x="545" y="831"/>
      <point x="472" y="809"/>
    </contour>
  </outline>
</glyph>
<glyph name="shhadescender-cy.sc" format="1">
  <advance width="1237"/>
  <outline>
    <contour>
      <point x="216" y="1444" type="move" name="top"/>
    </contour>
    <contour>
      <point x="563" y="0" type="move" name="bottom"/>
    </contour>
    <contour>
      <point x="1199" y="69" type="curve"/>
      <point x="961" y="69" type="line"/>
      <point x="700" y="69" type="line"/>
      <point x="708" y="0" type="line"/>
      <point x="961" y="0" type="line"/>
      <point x="975" y="-81"/>
      <point x="990" y="-270"/>
      <point x="993" y="-370" type="curve"/>
      <point x="1124" y="-370" type="line"/>
      <point x="1152" y="-257"/>
      <point x="1192" y="-53"/>
    </contour>
    <contour>
      <point x="400" y="785" type="curve"/>
      <point x="399" y="1225" type="line"/>
      <point x="514" y="1257" type="line"/>
      <point x="513" y="1292" type="line"/>
      <point x="-44" y="1292" type="line"/>
      <point x="-44" y="1257" type="line"/>
      <point x="46" y="1225" type="line"/>
      <point x="47" y="67" type="line"/>
      <point x="-44" y="35" type="line"/>
      <point x="-42" y="0" type="line"/>
      <point x="484" y="0" type="line"/>
      <point x="484" y="35" type="line"/>
      <point x="400" y="67" type="line"/>
      <point x="400" y="719" type="line"/>
      <point x="434" y="740"/>
      <point x="475" y="752"/>
      <point x="509" y="752" type="curve" smooth="yes"/>
      <point x="679" y="752"/>
      <point x="667" y="561"/>
      <point x="667" y="351" type="curve" smooth="yes"/>
      <point x="668" y="67" type="line"/>
      <point x="579" y="35" type="line"/>
      <point x="580" y="0" type="line"/>
      <point x="1110" y="0" type="line"/>
      <point x="1110" y="35" type="line"/>
      <point x="1020" y="67" type="line"/>
      <point x="1020" y="437" type="line" smooth="yes"/>
      <point x="1021" y="727"/>
      <point x="861" y="831"/>
      <point x="614" y="831" type="curve" smooth="yes"/>
      <point x="512" y="831"/>
      <point x="438" y="809"/>
    </contour>
  </outline>
</glyph>
<glyph name="tedescender-cy.sc" format="1">
  <advance width="1044"/>
  <outline>
    <contour>
      <point x="823" y="69" type="curve"/>
      <point x="660" y="70" type="line"/>
      <point x="655" y="1242" type="line"/>
      <point x="699" y="1236" type="line"/>
      <point x="829" y="862" type="line"/>
      <point x="973" y="862" type="line"/>
      <point x="953" y="1292" type="line"/>
      <point x="-10" y="1292" type="line"/>
      <point x="-40" y="862" type="line"/>
      <point x="128" y="862" type="line"/>
      <point x="252" y="1236" type="line"/>
      <point x="307" y="1242" type="line"/>
      <point x="307" y="67" type="line"/>
      <point x="136" y="35" type="line"/>
      <point x="137" y="0" type="line"/>
      <point x="585" y="0" type="line"/>
      <point x="599" y="-81"/>
      <point x="614" y="-270"/>
      <point x="617" y="-370" type="curve"/>
      <point x="748" y="-370" type="line"/>
      <point x="776" y="-257"/>
      <point x="816" y="-53"/>
    </contour>
  </outline>
</glyph>
<glyph name="tetse-cy.sc" format="1">
  <advance width="1736"/>
  <outline>
    <contour>
      <point x="654" y="-144" type="move" name="btm"/>
    </contour>
    <contour>
      <point x="454" y="1444" type="move" name="top"/>
    </contour>
    <contour>
      <point x="1654" y="69" type="curve"/>
      <point x="1482" y="70" type="line"/>
      <point x="1481" y="1225" type="line"/>
      <point x="1572" y="1257" type="line"/>
      <point x="1571" y="1292" type="line"/>
      <point x="1017" y="1292" type="line"/>
      <point x="1017" y="1257" type="line"/>
      <point x="1129" y="1225" type="line"/>
      <point x="1129" y="71" type="line"/>
      <point x="617" y="71" type="line"/>
      <point x="614" y="1242" type="line"/>
      <point x="673" y="1236" type="line"/>
      <point x="803" y="862" type="line"/>
      <point x="948" y="862" type="line"/>
      <point x="928" y="1292" type="line"/>
      <point x="-65" y="1292" type="line"/>
      <point x="-95" y="862" type="line"/>
      <point x="73" y="862" type="line"/>
      <point x="198" y="1236" type="line"/>
      <point x="265" y="1242" type="line"/>
      <point x="266" y="67" type="line"/>
      <point x="95" y="35" type="line"/>
      <point x="96" y="0" type="line"/>
      <point x="1416" y="0" type="line"/>
      <point x="1431" y="-81"/>
      <point x="1445" y="-270"/>
      <point x="1448" y="-370" type="curve"/>
      <point x="1580" y="-370" type="line"/>
      <point x="1607" y="-257"/>
      <point x="1647" y="-53"/>
    </contour>
  </outline>
</glyph>
<glyph name="tse-cy.sc" format="1">
  <advance width="1198"/>
  <outline>
    <contour>
      <point x="515" y="1292" type="move" name="top"/>
    </contour>
    <contour>
      <point x="1174" y="69" type="curve"/>
      <point x="1002" y="70" type="line"/>
      <point x="1001" y="1225" type="line"/>
      <point x="1092" y="1257" type="line"/>
      <point x="1090" y="1292" type="line"/>
      <point x="540" y="1292" type="line"/>
      <point x="540" y="1257" type="line"/>
      <point x="648" y="1225" type="line"/>
      <point x="648" y="71" type="line"/>
      <point x="411" y="71" type="line"/>
      <point x="410" y="1225" type="line"/>
      <point x="511" y="1257" type="line"/>
      <point x="510" y="1292" type="line"/>
      <point x="-33" y="1292" type="line"/>
      <point x="-33" y="1257" type="line"/>
      <point x="57" y="1225" type="line"/>
      <point x="58" y="67" type="line"/>
      <point x="-33" y="35" type="line"/>
      <point x="-32" y="0" type="line"/>
      <point x="935" y="0" type="line"/>
      <point x="950" y="-81"/>
      <point x="964" y="-270"/>
      <point x="968" y="-370" type="curve"/>
      <point x="1099" y="-370" type="line"/>
      <point x="1127" y="-257"/>
      <point x="1167" y="-53"/>
    </contour>
  </outline>
</glyph>
<glyph name="tshe-cy.sc" format="1">
  <advance width="1451"/>
  <outline>
    <contour>
      <point x="422" y="-144" type="move" name="btm"/>
    </contour>
    <contour>
      <point x="389" y="1444" type="move" name="top"/>
    </contour>
    <contour>
      <point x="698" y="746" type="curve"/>
      <point x="697" y="1242" type="line"/>
      <point x="803" y="1236" type="line"/>
      <point x="906" y="918" type="line"/>
      <point x="1050" y="918" type="line"/>
      <point x="1059" y="1292" type="line"/>
      <point x="-40" y="1292" type="line"/>
      <point x="-35" y="918" type="line"/>
      <point x="131" y="918" type="line"/>
      <point x="222" y="1235" type="line"/>
      <point x="345" y="1242" type="line"/>
      <point x="346" y="67" type="line"/>
      <point x="256" y="35" type="line"/>
      <point x="256" y="0" type="line"/>
      <point x="782" y="0" type="line"/>
      <point x="783" y="35" type="line"/>
      <point x="698" y="67" type="line"/>
      <point x="698" y="680" type="line"/>
      <point x="732" y="701"/>
      <point x="774" y="713"/>
      <point x="808" y="713" type="curve" smooth="yes"/>
      <point x="978" y="713"/>
      <point x="967" y="522"/>
      <point x="967" y="312" type="curve" smooth="yes"/>
      <point x="966" y="67" type="line"/>
      <point x="879" y="35" type="line"/>
      <point x="879" y="0" type="line"/>
      <point x="1408" y="0" type="line"/>
      <point x="1409" y="35" type="line"/>
      <point x="1319" y="67" type="line"/>
      <point x="1319" y="398" type="line" smooth="yes"/>
      <point x="1319" y="688"/>
      <point x="1160" y="792"/>
      <point x="914" y="792" type="curve" smooth="yes"/>
      <point x="811" y="792"/>
      <point x="736" y="770"/>
    </contour>
  </outline>
</glyph>
<glyph name="uhungarumlaut-cy.sc" format="1">
  <advance width="1126"/>
  <outline>
    <contour>
      <point x="308" y="1309" type="line"/>
      <point x="409" y="1365"/>
      <point x="524" y="1497"/>
      <point x="606" y="1621" type="curve"/>
      <point x="409" y="1753" type="line"/>
      <point x="226" y="1362" type="line"/>
    </contour>
    <contour>
      <point x="644" y="1309" type="line"/>
      <point x="745" y="1365"/>
      <point x="860" y="1497"/>
      <point x="943" y="1621" type="curve"/>
      <point x="745" y="1753" type="line"/>
      <point x="562" y="1362" type="line"/>
    </contour>
    <contour>
      <point x="363" y="-32" type="curve" smooth="yes"/>
      <point x="507" y="-32"/>
      <point x="578" y="61"/>
      <point x="655" y="314" type="curve" smooth="yes"/>
      <point x="930" y="1222" type="line"/>
      <point x="1033" y="1256" type="line"/>
      <point x="1033" y="1292" type="line"/>
      <point x="701" y="1292" type="line"/>
      <point x="701" y="1256" type="line"/>
      <point x="837" y="1222" type="line"/>
      <point x="705" y="678" type="line"/>
      <point x="643" y="415" type="line"/>
      <point x="693" y="496" type="line"/>
      <point x="639" y="675" type="line"/>
      <point x="425" y="1228" type="line"/>
      <point x="581" y="1256" type="line"/>
      <point x="581" y="1292" type="line"/>
      <point x="-5" y="1292" type="line"/>
      <point x="-5" y="1256" type="line"/>
      <point x="74" y="1228" type="line"/>
      <point x="560" y="194" type="line"/>
      <point x="538" y="255" type="line"/>
      <point x="556" y="232"/>
      <point x="545" y="204"/>
      <point x="420" y="204" type="curve" smooth="yes"/>
      <point x="350" y="204"/>
      <point x="278" y="216"/>
      <point x="198" y="236" type="curve"/>
      <point x="196" y="17" type="line"/>
      <point x="236" y="-5"/>
      <point x="297" y="-32"/>
    </contour>
  </outline>
</glyph>
<glyph name="ushort-cy.sc" format="1">
  <advance width="1126"/>
  <outline>
    <contour>
      <point x="360" y="1656" type="curve" smooth="yes"/>
      <point x="208" y="1656" type="line"/>
      <point x="205" y="1638"/>
      <point x="204" y="1620"/>
      <point x="204" y="1602" type="curve" smooth="yes"/>
      <point x="204" y="1419"/>
      <point x="317" y="1300"/>
      <point x="518" y="1300" type="curve" smooth="yes"/>
      <point x="718" y="1300"/>
      <point x="833" y="1419"/>
      <point x="833" y="1602" type="curve" smooth="yes"/>
      <point x="833" y="1620"/>
      <point x="833" y="1638"/>
      <point x="829" y="1656" type="curve"/>
      <point x="677" y="1656" type="line" smooth="yes"/>
      <point x="624" y="1656"/>
      <point x="614" y="1608"/>
      <point x="614" y="1531" type="curve" smooth="yes"/>
      <point x="614" y="1419"/>
      <point x="585" y="1350"/>
      <point x="518" y="1350" type="curve" smooth="yes"/>
      <point x="451" y="1350"/>
      <point x="423" y="1419"/>
      <point x="423" y="1531" type="curve" smooth="yes"/>
      <point x="423" y="1608"/>
      <point x="413" y="1656"/>
    </contour>
    <contour>
      <point x="363" y="-32" type="curve" smooth="yes"/>
      <point x="507" y="-32"/>
      <point x="578" y="61"/>
      <point x="655" y="314" type="curve" smooth="yes"/>
      <point x="930" y="1222" type="line"/>
      <point x="1033" y="1256" type="line"/>
      <point x="1033" y="1292" type="line"/>
      <point x="701" y="1292" type="line"/>
      <point x="701" y="1256" type="line"/>
      <point x="837" y="1222" type="line"/>
      <point x="705" y="678" type="line"/>
      <point x="643" y="415" type="line"/>
      <point x="693" y="496" type="line"/>
      <point x="639" y="675" type="line"/>
      <point x="425" y="1228" type="line"/>
      <point x="581" y="1256" type="line"/>
      <point x="581" y="1292" type="line"/>
      <point x="-5" y="1292" type="line"/>
      <point x="-5" y="1256" type="line"/>
      <point x="74" y="1228" type="line"/>
      <point x="560" y="194" type="line"/>
      <point x="538" y="255" type="line"/>
      <point x="556" y="232"/>
      <point x="545" y="204"/>
      <point x="420" y="204" type="curve" smooth="yes"/>
      <point x="350" y="204"/>
      <point x="278" y="216"/>
      <point x="198" y="236" type="curve"/>
      <point x="196" y="17" type="line"/>
      <point x="236" y="-5"/>
      <point x="297" y="-32"/>
    </contour>
  </outline>
</glyph>
<glyph name="yat-cy.sc" format="1">
  <advance width="1298"/>
  <outline>
    <contour>
      <point x="635" y="1444" type="move" name="top"/>
    </contour>
    <contour>
      <point x="671" y="673" type="curve"/>
      <point x="670" y="1046" type="line"/>
      <point x="876" y="1030" type="line"/>
      <point x="899" y="824" type="line"/>
      <point x="1047" y="824" type="line"/>
      <point x="1083" y="1101" type="line"/>
      <point x="670" y="1101" type="line"/>
      <point x="670" y="1225" type="line"/>
      <point x="776" y="1257" type="line"/>
      <point x="774" y="1292" type="line"/>
      <point x="227" y="1292" type="line"/>
      <point x="228" y="1257" type="line"/>
      <point x="317" y="1225" type="line"/>
      <point x="317" y="1101" type="line"/>
      <point x="1" y="1101" type="line"/>
      <point x="4" y="824" type="line"/>
      <point x="154" y="824" type="line"/>
      <point x="178" y="1035" type="line"/>
      <point x="317" y="1046" type="line"/>
      <point x="318" y="67" type="line"/>
      <point x="228" y="35" type="line"/>
      <point x="229" y="0" type="line"/>
      <point x="412" y="0" type="line" smooth="yes"/>
      <point x="530" y="0"/>
      <point x="658" y="-18"/>
      <point x="775" y="-18" type="curve" smooth="yes"/>
      <point x="1033" y="-18"/>
      <point x="1297" y="66"/>
      <point x="1262" y="372" type="curve" smooth="yes"/>
      <point x="1234" y="618"/>
      <point x="1022" y="691"/>
      <point x="816" y="691" type="curve" smooth="yes"/>
      <point x="764" y="691"/>
      <point x="707" y="683"/>
    </contour>
    <contour>
      <point x="672" y="63" type="curve"/>
      <point x="670" y="607" type="line"/>
      <point x="696" y="616"/>
      <point x="725" y="620"/>
      <point x="736" y="620" type="curve" smooth="yes"/>
      <point x="854" y="620"/>
      <point x="880" y="519"/>
      <point x="897" y="363" type="curve" smooth="yes"/>
      <point x="915" y="187"/>
      <point x="889" y="40"/>
      <point x="758" y="40" type="curve" smooth="yes"/>
      <point x="707" y="40"/>
      <point x="683" y="53"/>
    </contour>
  </outline>
</glyph>
<glyph name="yeru-cy.sc" format="1">
  <advance width="1675"/>
  <outline>
    <contour>
      <point x="1005" y="1292" type="move" name="top"/>
    </contour>
    <contour>
      <point x="432" y="754" type="curve"/>
      <point x="431" y="1225" type="line"/>
      <point x="536" y="1257" type="line"/>
      <point x="535" y="1292" type="line"/>
      <point x="-12" y="1292" type="line"/>
      <point x="-11" y="1257" type="line"/>
      <point x="78" y="1225" type="line"/>
      <point x="79" y="67" type="line"/>
      <point x="-12" y="35" type="line"/>
      <point x="-10" y="0" type="line"/>
      <point x="173" y="0" type="line" smooth="yes"/>
      <point x="291" y="0"/>
      <point x="419" y="-18"/>
      <point x="536" y="-18" type="curve" smooth="yes"/>
      <point x="809" y="-18"/>
      <point x="1060" y="93"/>
      <point x="1023" y="413" type="curve" smooth="yes"/>
      <point x="990" y="685"/>
      <point x="790" y="772"/>
      <point x="555" y="772" type="curve" smooth="yes"/>
      <point x="511" y="772"/>
      <point x="465" y="764"/>
    </contour>
    <contour>
      <point x="433" y="63" type="curve"/>
      <point x="432" y="691" type="line"/>
      <point x="448" y="697"/>
      <point x="473" y="701"/>
      <point x="484" y="701" type="curve" smooth="yes"/>
      <point x="609" y="701"/>
      <point x="637" y="589"/>
      <point x="654" y="427" type="curve" smooth="yes"/>
      <point x="673" y="242"/>
      <point x="660" y="40"/>
      <point x="519" y="40" type="curve" smooth="yes"/>
      <point x="468" y="40"/>
      <point x="444" y="53"/>
    </contour>
  </outline>
</glyph>
<glyph name="yerudieresis-cy.sc" format="1">
  <advance width="1675"/>
  <outline>
    <contour>
      <point x="1197" y="1320" type="curve"/>
      <point x="1291" y="1320"/>
      <point x="1352" y="1417"/>
      <point x="1352" y="1516" type="curve" smooth="yes"/>
      <point x="1352" y="1606"/>
      <point x="1302" y="1666"/>
      <point x="1212" y="1666" type="curve" smooth="yes"/>
      <point x="1115" y="1666"/>
      <point x="1052" y="1577"/>
      <point x="1052" y="1489" type="curve" smooth="yes"/>
      <point x="1052" y="1388"/>
      <point x="1105" y="1320"/>
    </contour>
    <contour>
      <point x="797" y="1320" type="curve"/>
      <point x="894" y="1320"/>
      <point x="957" y="1417"/>
      <point x="957" y="1516" type="curve" smooth="yes"/>
      <point x="957" y="1608"/>
      <point x="904" y="1666"/>
      <point x="812" y="1666" type="curve" smooth="yes"/>
      <point x="718" y="1666"/>
      <point x="657" y="1577"/>
      <point x="657" y="1489" type="curve" smooth="yes"/>
      <point x="657" y="1388"/>
      <point x="708" y="1320"/>
    </contour>
    <contour>
      <point x="432" y="754" type="curve"/>
      <point x="431" y="1225" type="line"/>
      <point x="536" y="1257" type="line"/>
      <point x="535" y="1292" type="line"/>
      <point x="-12" y="1292" type="line"/>
      <point x="-11" y="1257" type="line"/>
      <point x="78" y="1225" type="line"/>
      <point x="79" y="67" type="line"/>
      <point x="-12" y="35" type="line"/>
      <point x="-10" y="0" type="line"/>
      <point x="173" y="0" type="line" smooth="yes"/>
      <point x="291" y="0"/>
      <point x="419" y="-18"/>
      <point x="536" y="-18" type="curve" smooth="yes"/>
      <point x="809" y="-18"/>
      <point x="1060" y="93"/>
      <point x="1023" y="413" type="curve" smooth="yes"/>
      <point x="990" y="685"/>
      <point x="790" y="772"/>
      <point x="555" y="772" type="curve" smooth="yes"/>
      <point x="511" y="772"/>
      <point x="465" y="764"/>
    </contour>
    <contour>
      <point x="433" y="63" type="curve"/>
      <point x="432" y="691" type="line"/>
      <point x="448" y="697"/>
      <point x="473" y="701"/>
      <point x="484" y="701" type="curve" smooth="yes"/>
      <point x="609" y="701"/>
      <point x="637" y="589"/>
      <point x="654" y="427" type="curve" smooth="yes"/>
      <point x="673" y="242"/>
      <point x="660" y="40"/>
      <point x="519" y="40" type="curve" smooth="yes"/>
      <point x="468" y="40"/>
      <point x="444" y="53"/>
    </contour>
  </outline>
</glyph>
<glyph name="yusbig-cy.sc" format="1">
  <advance width="1687"/>
  <outline>
    <contour>
      <point x="703" y="615" type="curve" smooth="yes"/>
      <point x="734" y="615" type="line"/>
      <point x="736" y="67" type="line"/>
      <point x="618" y="35" type="line"/>
      <point x="618" y="0" type="line"/>
      <point x="1181" y="0" type="line"/>
      <point x="1182" y="35" type="line"/>
      <point x="1045" y="67" type="line"/>
      <point x="1043" y="615" type="line"/>
      <point x="1061" y="615" type="line" smooth="yes"/>
      <point x="1140" y="615"/>
      <point x="1325" y="0"/>
      <point x="1423" y="0" type="curve" smooth="yes"/>
      <point x="1736" y="0" type="line"/>
      <point x="1737" y="35" type="line"/>
      <point x="1694" y="52" type="line" smooth="yes"/>
      <point x="1646" y="69"/>
      <point x="1557" y="242"/>
      <point x="1471" y="404" type="curve" smooth="yes"/>
      <point x="1336" y="634"/>
      <point x="1271" y="684"/>
      <point x="1161" y="684" type="curve" smooth="yes"/>
      <point x="1046" y="684" type="line"/>
      <point x="1437" y="1172" type="line"/>
      <point x="1429" y="1292" type="line"/>
      <point x="351" y="1292" type="line"/>
      <point x="339" y="1174" type="line"/>
      <point x="715" y="684" type="line"/>
      <point x="544" y="684" type="line" smooth="yes"/>
      <point x="470" y="684"/>
      <point x="411" y="613"/>
      <point x="349" y="511" type="curve" smooth="yes"/>
      <point x="284" y="379"/>
      <point x="234" y="203"/>
      <point x="124" y="56" type="curve" smooth="yes"/>
      <point x="84" y="35" type="line"/>
      <point x="84" y="0" type="line"/>
      <point x="420" y="0" type="line" smooth="yes"/>
      <point x="489" y="0"/>
      <point x="600" y="615"/>
    </contour>
    <contour>
      <point x="1297" y="1151" type="line"/>
      <point x="872" y="614" type="line"/>
      <point x="482" y="1151" type="line"/>
    </contour>
  </outline>
</glyph>
<glyph name="zedescender-cy.sc" format="1">
  <advance width="952"/>
  <outline>
    <contour>
      <point x="27" y="1241" type="curve"/>
      <point x="21" y="906" type="line"/>
      <point x="225" y="906" type="line"/>
      <point x="263" y="1075" type="line"/>
      <point x="290" y="1217"/>
      <point x="326" y="1254"/>
      <point x="400" y="1254" type="curve" smooth="yes"/>
      <point x="491" y="1254"/>
      <point x="512" y="1159"/>
      <point x="523" y="1039" type="curve" smooth="yes"/>
      <point x="554" y="794"/>
      <point x="458" y="717"/>
      <point x="354" y="725" type="curve" smooth="yes"/>
      <point x="244" y="733" type="line"/>
      <point x="244" y="600" type="line"/>
      <point x="379" y="613" type="line"/>
      <point x="492" y="605"/>
      <point x="527" y="510"/>
      <point x="542" y="369" type="curve" smooth="yes"/>
      <point x="564" y="171"/>
      <point x="554" y="40"/>
      <point x="396" y="40" type="curve" smooth="yes"/>
      <point x="314" y="40"/>
      <point x="273" y="67"/>
      <point x="250" y="96" type="curve"/>
      <point x="187" y="393" type="line"/>
      <point x="12" y="393" type="line"/>
      <point x="5" y="79" type="line"/>
      <point x="28" y="70"/>
      <point x="181" y="-18"/>
      <point x="386" y="-18" type="curve" smooth="yes"/>
      <point x="648" y="-18"/>
      <point x="938" y="74"/>
      <point x="903" y="378" type="curve" smooth="yes"/>
      <point x="887" y="524"/>
      <point x="787" y="664"/>
      <point x="532" y="684" type="curve"/>
      <point x="655" y="704"/>
      <point x="887" y="772"/>
      <point x="858" y="1016" type="curve" smooth="yes"/>
      <point x="831" y="1244"/>
      <point x="615" y="1310"/>
      <point x="418" y="1310" type="curve" smooth="yes"/>
      <point x="230" y="1310"/>
      <point x="119" y="1245"/>
    </contour>
  </outline>
</glyph>
<glyph name="zedieresis-cy.sc" format="1">
  <advance width="952"/>
  <outline>
    <contour>
      <point x="575" y="1320" type="curve"/>
      <point x="669" y="1320"/>
      <point x="730" y="1417"/>
      <point x="730" y="1516" type="curve" smooth="yes"/>
      <point x="730" y="1606"/>
      <point x="679" y="1666"/>
      <point x="590" y="1666" type="curve" smooth="yes"/>
      <point x="493" y="1666"/>
      <point x="430" y="1577"/>
      <point x="430" y="1489" type="curve" smooth="yes"/>
      <point x="430" y="1388"/>
      <point x="483" y="1320"/>
    </contour>
    <contour>
      <point x="175" y="1320" type="curve"/>
      <point x="272" y="1320"/>
      <point x="335" y="1417"/>
      <point x="335" y="1516" type="curve" smooth="yes"/>
      <point x="335" y="1608"/>
      <point x="282" y="1666"/>
      <point x="190" y="1666" type="curve" smooth="yes"/>
      <point x="96" y="1666"/>
      <point x="35" y="1577"/>
      <point x="35" y="1489" type="curve" smooth="yes"/>
      <point x="35" y="1388"/>
      <point x="86" y="1320"/>
    </contour>
    <contour>
      <point x="27" y="1241" type="curve"/>
      <point x="21" y="906" type="line"/>
      <point x="225" y="906" type="line"/>
      <point x="263" y="1075" type="line"/>
      <point x="290" y="1217"/>
      <point x="326" y="1254"/>
      <point x="400" y="1254" type="curve" smooth="yes"/>
      <point x="491" y="1254"/>
      <point x="512" y="1159"/>
      <point x="523" y="1039" type="curve" smooth="yes"/>
      <point x="554" y="794"/>
      <point x="458" y="717"/>
      <point x="354" y="725" type="curve" smooth="yes"/>
      <point x="244" y="733" type="line"/>
      <point x="244" y="600" type="line"/>
      <point x="379" y="613" type="line"/>
      <point x="492" y="605"/>
      <point x="527" y="510"/>
      <point x="542" y="369" type="curve" smooth="yes"/>
      <point x="564" y="171"/>
      <point x="554" y="40"/>
      <point x="396" y="40" type="curve" smooth="yes"/>
      <point x="314" y="40"/>
      <point x="273" y="67"/>
      <point x="250" y="96" type="curve"/>
      <point x="187" y="393" type="line"/>
      <point x="12" y="393" type="line"/>
      <point x="5" y="79" type="line"/>
      <point x="28" y="70"/>
      <point x="181" y="-18"/>
      <point x="386" y="-18" type="curve" smooth="yes"/>
      <point x="648" y="-18"/>
      <point x="938" y="74"/>
      <point x="903" y="378" type="curve" smooth="yes"/>
      <point x="887" y="524"/>
      <point x="787" y="664"/>
      <point x="532" y="684" type="curve"/>
      <point x="655" y="704"/>
      <point x="887" y="772"/>
      <point x="858" y="1016" type="curve" smooth="yes"/>
      <point x="831" y="1244"/>
      <point x="615" y="1310"/>
      <point x="418" y="1310" type="curve" smooth="yes"/>
      <point x="230" y="1310"/>
      <point x="119" y="1245"/>
    </contour>
  </outline>
</glyph>
<glyph name="zhe-cy.sc" format="1">
  <advance width="1553"/>
  <outline>
    <contour>
      <point x="737" y="1292" type="move" name="top"/>
    </contour>
    <contour>
      <point x="1084" y="683" type="curve"/>
      <point x="1418" y="1220" type="line"/>
      <point x="1553" y="1254" type="line"/>
      <point x="1551" y="1292" type="line"/>
      <point x="1161" y="1292" type="line"/>
      <point x="1162" y="1254" type="line"/>
      <point x="1307" y="1220" type="line"/>
      <point x="1007" y="691" type="line"/>
      <point x="912" y="691" type="line"/>
      <point x="911" y="1225" type="line"/>
      <point x="1035" y="1257" type="line"/>
      <point x="1034" y="1292" type="line"/>
      <point x="451" y="1292" type="line"/>
      <point x="450" y="1257" type="line"/>
      <point x="602" y="1225" type="line"/>
      <point x="603" y="691" type="line"/>
      <point x="508" y="691" type="line"/>
      <point x="179" y="1220" type="line"/>
      <point x="328" y="1257" type="line"/>
      <point x="328" y="1292" type="line"/>
      <point x="-61" y="1292" type="line"/>
      <point x="-61" y="1257" type="line"/>
      <point x="71" y="1220" type="line"/>
      <point x="436" y="685" type="line"/>
      <point x="141" y="685"/>
      <point x="134" y="242"/>
      <point x="-17" y="57" type="curve" smooth="yes"/>
      <point x="-54" y="35" type="line"/>
      <point x="-54" y="0" type="line"/>
      <point x="278" y="0" type="line" smooth="yes"/>
      <point x="377" y="0"/>
      <point x="411" y="636"/>
      <point x="576" y="636" type="curve" smooth="yes"/>
      <point x="601" y="636" type="line"/>
      <point x="603" y="67" type="line"/>
      <point x="485" y="35" type="line"/>
      <point x="485" y="0" type="line"/>
      <point x="1048" y="0" type="line"/>
      <point x="1049" y="35" type="line"/>
      <point x="913" y="67" type="line"/>
      <point x="910" y="636" type="line"/>
      <point x="925" y="636" type="line" smooth="yes"/>
      <point x="1066" y="636"/>
      <point x="1145" y="0"/>
      <point x="1236" y="0" type="curve" smooth="yes"/>
      <point x="1602" y="0" type="line"/>
      <point x="1603" y="35" type="line"/>
      <point x="1529" y="61" type="line"/>
      <point x="1426" y="129"/>
      <point x="1347" y="614"/>
    </contour>
  </outline>
</glyph>
<glyph name="zhebreve-cy.sc" format="1">
  <advance width="1553"/>
  <outline>
    <contour>
      <point x="578" y="1656" type="curve" smooth="yes"/>
      <point x="426" y="1656" type="line"/>
      <point x="422" y="1638"/>
      <point x="422" y="1620"/>
      <point x="422" y="1602" type="curve" smooth="yes"/>
      <point x="422" y="1419"/>
      <point x="535" y="1300"/>
      <point x="736" y="1300" type="curve" smooth="yes"/>
      <point x="935" y="1300"/>
      <point x="1051" y="1419"/>
      <point x="1051" y="1602" type="curve" smooth="yes"/>
      <point x="1051" y="1620"/>
      <point x="1050" y="1638"/>
      <point x="1047" y="1656" type="curve"/>
      <point x="895" y="1656" type="line" smooth="yes"/>
      <point x="842" y="1656"/>
      <point x="832" y="1608"/>
      <point x="832" y="1531" type="curve" smooth="yes"/>
      <point x="832" y="1419"/>
      <point x="803" y="1350"/>
      <point x="735" y="1350" type="curve" smooth="yes"/>
      <point x="669" y="1350"/>
      <point x="641" y="1419"/>
      <point x="641" y="1531" type="curve" smooth="yes"/>
      <point x="641" y="1608"/>
      <point x="631" y="1656"/>
    </contour>
    <contour>
      <point x="1084" y="683" type="curve"/>
      <point x="1418" y="1220" type="line"/>
      <point x="1553" y="1254" type="line"/>
      <point x="1551" y="1292" type="line"/>
      <point x="1161" y="1292" type="line"/>
      <point x="1162" y="1254" type="line"/>
      <point x="1307" y="1220" type="line"/>
      <point x="1007" y="691" type="line"/>
      <point x="912" y="691" type="line"/>
      <point x="911" y="1225" type="line"/>
      <point x="1035" y="1257" type="line"/>
      <point x="1034" y="1292" type="line"/>
      <point x="451" y="1292" type="line"/>
      <point x="450" y="1257" type="line"/>
      <point x="602" y="1225" type="line"/>
      <point x="603" y="691" type="line"/>
      <point x="508" y="691" type="line"/>
      <point x="179" y="1220" type="line"/>
      <point x="328" y="1257" type="line"/>
      <point x="328" y="1292" type="line"/>
      <point x="-61" y="1292" type="line"/>
      <point x="-61" y="1257" type="line"/>
      <point x="71" y="1220" type="line"/>
      <point x="436" y="685" type="line"/>
      <point x="141" y="685"/>
      <point x="134" y="242"/>
      <point x="-17" y="57" type="curve" smooth="yes"/>
      <point x="-54" y="35" type="line"/>
      <point x="-54" y="0" type="line"/>
      <point x="278" y="0" type="line" smooth="yes"/>
      <point x="377" y="0"/>
      <point x="411" y="636"/>
      <point x="576" y="636" type="curve" smooth="yes"/>
      <point x="601" y="636" type="line"/>
      <point x="603" y="67" type="line"/>
      <point x="485" y="35" type="line"/>
      <point x="485" y="0" type="line"/>
      <point x="1048" y="0" type="line"/>
      <point x="1049" y="35" type="line"/>
      <point x="913" y="67" type="line"/>
      <point x="910" y="636" type="line"/>
      <point x="925" y="636" type="line" smooth="yes"/>
      <point x="1066" y="636"/>
      <point x="1145" y="0"/>
      <point x="1236" y="0" type="curve" smooth="yes"/>
      <point x="1602" y="0" type="line"/>
      <point x="1603" y="35" type="line"/>
      <point x="1529" y="61" type="line"/>
      <point x="1426" y="129"/>
      <point x="1347" y="614"/>
    </contour>
  </outline>
</glyph>
<glyph name="zhedescender-cy.sc" format="1">
  <advance width="1581"/>
  <outline>
    <contour>
      <point x="564" y="1444" type="move" name="top"/>
    </contour>
    <contour>
      <point x="1076" y="683" type="curve"/>
      <point x="1409" y="1220" type="line"/>
      <point x="1543" y="1254" type="line"/>
      <point x="1542" y="1292" type="line"/>
      <point x="1151" y="1292" type="line"/>
      <point x="1153" y="1254" type="line"/>
      <point x="1299" y="1220" type="line"/>
      <point x="998" y="691" type="line"/>
      <point x="903" y="691" type="line"/>
      <point x="902" y="1225" type="line"/>
      <point x="1027" y="1257" type="line"/>
      <point x="1025" y="1292" type="line"/>
      <point x="441" y="1292" type="line"/>
      <point x="442" y="1257" type="line"/>
      <point x="592" y="1225" type="line"/>
      <point x="593" y="691" type="line"/>
      <point x="499" y="691" type="line"/>
      <point x="170" y="1220" type="line"/>
      <point x="320" y="1257" type="line"/>
      <point x="318" y="1292" type="line"/>
      <point x="-70" y="1292" type="line"/>
      <point x="-70" y="1257" type="line"/>
      <point x="63" y="1220" type="line"/>
      <point x="426" y="685" type="line"/>
      <point x="132" y="685"/>
      <point x="126" y="242"/>
      <point x="-27" y="57" type="curve" smooth="yes"/>
      <point x="-63" y="35" type="line"/>
      <point x="-62" y="0" type="line"/>
      <point x="270" y="0" type="line" smooth="yes"/>
      <point x="368" y="0"/>
      <point x="402" y="636"/>
      <point x="567" y="636" type="curve" smooth="yes"/>
      <point x="593" y="636" type="line"/>
      <point x="595" y="67" type="line"/>
      <point x="476" y="35" type="line"/>
      <point x="477" y="0" type="line"/>
      <point x="1040" y="0" type="line"/>
      <point x="1040" y="35" type="line"/>
      <point x="904" y="67" type="line"/>
      <point x="901" y="636" type="line"/>
      <point x="917" y="636" type="line" smooth="yes"/>
      <point x="1058" y="636"/>
      <point x="1136" y="0"/>
      <point x="1228" y="0" type="curve" smooth="yes"/>
      <point x="1363" y="0" type="line"/>
      <point x="1377" y="-81"/>
      <point x="1392" y="-270"/>
      <point x="1395" y="-370" type="curve"/>
      <point x="1526" y="-370" type="line"/>
      <point x="1554" y="-257"/>
      <point x="1594" y="-53"/>
      <point x="1601" y="69" type="curve"/>
      <point x="1513" y="69" type="line"/>
      <point x="1414" y="169"/>
      <point x="1329" y="617"/>
    </contour>
  </outline>
</glyph>
<glyph name="zhedieresis-cy.sc" format="1">
  <advance width="1553"/>
  <outline>
    <contour>
      <point x="929" y="1320" type="curve"/>
      <point x="1024" y="1320"/>
      <point x="1085" y="1417"/>
      <point x="1085" y="1516" type="curve" smooth="yes"/>
      <point x="1085" y="1606"/>
      <point x="1034" y="1666"/>
      <point x="944" y="1666" type="curve" smooth="yes"/>
      <point x="848" y="1666"/>
      <point x="784" y="1577"/>
      <point x="784" y="1489" type="curve" smooth="yes"/>
      <point x="784" y="1388"/>
      <point x="837" y="1320"/>
    </contour>
    <contour>
      <point x="530" y="1320" type="curve"/>
      <point x="626" y="1320"/>
      <point x="690" y="1417"/>
      <point x="690" y="1516" type="curve" smooth="yes"/>
      <point x="690" y="1608"/>
      <point x="637" y="1666"/>
      <point x="545" y="1666" type="curve" smooth="yes"/>
      <point x="450" y="1666"/>
      <point x="389" y="1577"/>
      <point x="389" y="1489" type="curve" smooth="yes"/>
      <point x="389" y="1388"/>
      <point x="440" y="1320"/>
    </contour>
    <contour>
      <point x="1084" y="683" type="curve"/>
      <point x="1418" y="1220" type="line"/>
      <point x="1553" y="1254" type="line"/>
      <point x="1551" y="1292" type="line"/>
      <point x="1161" y="1292" type="line"/>
      <point x="1162" y="1254" type="line"/>
      <point x="1307" y="1220" type="line"/>
      <point x="1007" y="691" type="line"/>
      <point x="912" y="691" type="line"/>
      <point x="911" y="1225" type="line"/>
      <point x="1035" y="1257" type="line"/>
      <point x="1034" y="1292" type="line"/>
      <point x="451" y="1292" type="line"/>
      <point x="450" y="1257" type="line"/>
      <point x="602" y="1225" type="line"/>
      <point x="603" y="691" type="line"/>
      <point x="508" y="691" type="line"/>
      <point x="179" y="1220" type="line"/>
      <point x="328" y="1257" type="line"/>
      <point x="328" y="1292" type="line"/>
      <point x="-61" y="1292" type="line"/>
      <point x="-61" y="1257" type="line"/>
      <point x="71" y="1220" type="line"/>
      <point x="436" y="685" type="line"/>
      <point x="141" y="685"/>
      <point x="134" y="242"/>
      <point x="-17" y="57" type="curve" smooth="yes"/>
      <point x="-54" y="35" type="line"/>
      <point x="-54" y="0" type="line"/>
      <point x="278" y="0" type="line" smooth="yes"/>
      <point x="377" y="0"/>
      <point x="411" y="636"/>
      <point x="576" y="636" type="curve" smooth="yes"/>
      <point x="601" y="636" type="line"/>
      <point x="603" y="67" type="line"/>
      <point x="485" y="35" type="line"/>
      <point x="485" y="0" type="line"/>
      <point x="1048" y="0" type="line"/>
      <point x="1049" y="35" type="line"/>
      <point x="913" y="67" type="line"/>
      <point x="910" y="636" type="line"/>
      <point x="925" y="636" type="line" smooth="yes"/>
      <point x="1066" y="636"/>
      <point x="1145" y="0"/>
      <point x="1236" y="0" type="curve" smooth="yes"/>
      <point x="1602" y="0" type="line"/>
      <point x="1603" y="35" type="line"/>
      <point x="1529" y="61" type="line"/>
      <point x="1426" y="129"/>
      <point x="1347" y="614"/>
    </contour>
  </outline>
</glyph>
